<svg width="55" height="52" viewBox="0 0 55 52" fill="none" xmlns="http://www.w3.org/2000/svg">
<path d="M25.6009 29.4453C27.0415 27.5947 28.9595 26.1721 31.1484 25.3305C33.3373 24.4889 35.7144 24.2602 38.0236 24.669C38.5738 24.7662 39.1164 24.9018 39.6476 25.075C39.2376 22.4724 38.044 20.0567 36.2258 18.15C34.4076 16.2433 32.0513 14.9363 29.4711 14.4032C24.2465 13.3451 18.7696 15.7905 16.0217 20.3363C14.9493 22.134 14.3264 24.1639 14.2061 26.2538C14.0857 28.3436 14.4714 30.4316 15.3304 32.3405C15.4041 32.2684 15.4777 32.1963 15.553 32.1258C16.8794 30.889 18.4898 29.9976 20.242 29.5302C21.9943 29.0627 23.8347 29.0336 25.6009 29.4453V29.4453Z" fill="#F8B62D" stroke="#231815" stroke-miterlimit="10"/>
<path d="M15.3298 32.3405C14.4709 30.4316 14.0852 28.3436 14.2055 26.2538C14.3259 24.164 14.9487 22.134 16.0211 20.3363C18.7706 15.7983 24.2476 13.3451 29.4643 14.4016C32.0445 14.9347 34.4008 16.2418 36.219 18.1485C38.0372 20.0552 39.2308 22.4709 39.6408 25.0734C40.5077 25.3557 41.3405 25.7337 42.1238 26.2005C41.9461 23.222 40.9048 20.3596 39.1271 17.9631C37.3495 15.5666 34.9123 13.7397 32.1135 12.7056C26.2054 10.5392 19.2753 12.4516 15.2985 17.3188C11.3796 22.1155 10.7119 28.9656 13.7309 34.3736C14.1791 33.6333 14.716 32.9506 15.3298 32.3405V32.3405Z" fill="#231815" stroke="#231815" stroke-miterlimit="10"/>
<path d="M28.1589 7.41045V2.13568C28.1589 0.623007 25.8076 0.619872 25.8076 2.13568V7.41045C25.8076 8.92312 28.1589 8.92626 28.1589 7.41045Z" fill="#231815" stroke="#231815" stroke-miterlimit="10"/>
<path d="M16.1818 10.6255C16.939 11.936 18.9705 10.7525 18.2196 9.43886L15.5815 4.86949C14.8243 3.55903 12.7928 4.74252 13.5437 6.05612L16.1818 10.6255ZM17.1976 10.0314L14.5594 5.46202L17.1976 10.0314Z" fill="#231815" stroke="#231815" stroke-miterlimit="10"/>
<path d="M10.6264 16.1808L6.05699 13.5427C4.74496 12.784 3.55834 14.8155 4.87037 15.5805L9.43974 18.2186C10.7486 18.9695 11.9384 16.938 10.6264 16.1808ZM5.46446 14.5584L10.0338 17.2013L5.46446 14.5584Z" fill="#231815" stroke="#231815" stroke-miterlimit="10"/>
<path d="M2.13627 28.1584H7.41103C8.92371 28.1584 8.92684 25.8071 7.41103 25.8071H2.13627C0.622028 25.8071 0.62046 28.1584 2.13627 28.1584Z" fill="#231815" stroke="#231815" stroke-miterlimit="10"/>
<path d="M6.05789 40.4212L10.6273 37.783C11.9377 37.0259 10.7542 34.9944 9.44064 35.7452L4.87127 38.3834C3.5608 39.1468 4.74273 41.1846 6.05789 40.4212ZM10.0332 36.7688L5.46379 39.407L10.0332 36.7688Z" fill="#231815" stroke="#231815" stroke-miterlimit="10"/>
<path d="M46.5537 28.1584H51.8284C53.3411 28.1584 53.3442 25.8071 51.8284 25.8071H46.5537C45.041 25.8071 45.0378 28.1584 46.5537 28.1584Z" fill="#231815" stroke="#231815" stroke-miterlimit="10"/>
<path d="M44.5254 18.2108L49.0947 15.5727C50.4052 14.8156 49.2217 12.784 47.9081 13.5349L43.3387 16.173C42.0283 16.938 43.2118 18.9695 44.5254 18.2108ZM48.5006 14.5585L43.9328 17.2013L48.5006 14.5585Z" fill="#231815" stroke="#231815" stroke-miterlimit="10"/>
<path d="M37.7836 10.6255L40.4218 6.05614C41.1805 4.74411 39.1489 3.55748 38.384 4.86951L35.7458 9.43888C34.995 10.7525 37.0265 11.9375 37.7836 10.6255ZM39.406 5.46361L36.7694 10.033L39.406 5.46361Z" fill="#231815" stroke="#231815" stroke-miterlimit="10"/>
<path d="M47.6249 32.778C47.7095 32.999 47.7895 33.2231 47.8616 33.4504C47.9329 33.657 47.9416 33.88 47.8867 34.0916C49.6782 34.7447 51.1824 36.008 52.1351 37.6598C53.0879 39.3116 53.4283 41.2462 53.0966 43.124C52.7649 45.0018 51.7823 46.7028 50.3213 47.9282C48.8603 49.1536 47.0143 49.8251 45.1074 49.8249H23.06C21.3779 49.825 19.7244 49.3902 18.26 48.5626C16.7956 47.735 15.5701 46.5428 14.7024 45.1017C13.8348 43.6607 13.3545 42.0197 13.3083 40.3383C13.2621 38.6569 13.6514 36.992 14.4385 35.5055C14.2818 35.2797 14.1329 35.0509 13.9902 34.8158C13.9024 34.67 13.8178 34.5226 13.7363 34.3753C12.3819 36.6343 11.8694 39.2993 12.2894 41.8995C12.5825 43.623 13.2846 45.2512 14.3368 46.6474C15.3891 48.0436 16.7608 49.1671 18.337 49.9237C20.1679 50.7811 22.0646 50.999 24.0507 50.999H43.4019C44.9381 50.999 46.4586 51.0429 47.9478 50.557C51.8086 49.2935 54.5079 45.5675 54.3951 41.4856C54.3288 39.5058 53.6384 37.5975 52.4225 36.0336C51.2065 34.4697 49.5273 33.3302 47.6249 32.778V32.778Z" fill="#231815" stroke="#231815" stroke-miterlimit="10"/>
<path d="M23.06 30.3137C24.0806 30.312 25.0951 30.4707 26.0665 30.784C27.5152 28.6048 29.6604 26.9817 32.1513 26.1798C34.6422 25.378 37.3314 25.445 39.7793 26.3698C39.7549 25.9345 39.7083 25.5008 39.6398 25.0703C39.1111 24.8991 38.5711 24.765 38.0237 24.669C35.7154 24.2614 33.3397 24.4907 31.1519 25.3323C28.9642 26.1738 27.0473 27.5958 25.6072 29.4453C25.869 29.5048 26.1276 29.5738 26.391 29.6538L25.0633 30.1946C25.2388 29.9375 25.4217 29.6877 25.6119 29.4453C23.8455 29.0333 22.0048 29.0623 20.2522 29.5298C18.4997 29.9972 16.889 30.8888 15.5624 32.1258C15.4872 32.1963 15.4057 32.2684 15.3398 32.3421C15.5107 32.7203 15.7006 33.0897 15.9089 33.4488C16.8196 32.4605 17.9252 31.6717 19.156 31.1322C20.3868 30.5926 21.7161 30.3139 23.06 30.3137V30.3137Z" fill="#231815" stroke="#231815" stroke-miterlimit="10"/>
<path d="M26.3803 29.6538C26.1216 29.5739 25.863 29.5049 25.5965 29.4453C25.4063 29.6878 25.2234 29.9375 25.0479 30.1946L26.3803 29.6538Z" fill="#231815" stroke="#231815" stroke-miterlimit="10"/>
<path d="M42.134 27.591C43.9967 28.8459 45.455 30.6146 46.3319 32.6823C46.5567 32.5913 46.8042 32.5721 47.0404 32.6275C47.2379 32.6698 47.4323 32.7215 47.6251 32.7842C46.581 30.0349 44.6432 27.7163 42.123 26.2006C42.1387 26.4592 42.1497 26.7194 42.1513 26.9843C42.1497 27.1865 42.1434 27.3903 42.134 27.591Z" fill="#231815" stroke="#231815" stroke-miterlimit="10"/>
<path d="M46.3311 32.6823C46.4813 33.0354 46.6136 33.3959 46.7276 33.7623C47.1215 33.8429 47.5087 33.9529 47.8861 34.0915C47.941 33.88 47.9323 33.6569 47.861 33.4504C47.7889 33.2231 47.7042 33.0005 47.6243 32.7779C47.4315 32.723 47.2371 32.6713 47.0396 32.6211C46.8028 32.5678 46.5552 32.5891 46.3311 32.6823Z" fill="#231815" stroke="#231815" stroke-miterlimit="10"/>
<path d="M42.1507 26.9827C42.1601 25.6832 40.4264 25.4998 39.9326 26.4341C40.6681 26.7267 41.3715 27.0944 42.0316 27.5314C42.1153 27.3609 42.1562 27.1726 42.1507 26.9827V26.9827Z" fill="#231815" stroke="#231815" stroke-miterlimit="10"/>
<path d="M42.1331 27.591C42.1425 27.3888 42.1504 27.185 42.1519 26.9812C42.156 27.1691 42.1146 27.3551 42.0312 27.5236L42.1331 27.591Z" fill="#231815" stroke="#231815" stroke-miterlimit="10"/>
<path d="M14.4386 35.5054C14.8346 34.7591 15.3257 34.0673 15.8995 33.4473C15.6913 33.0882 15.5014 32.7188 15.3305 32.3406C14.7181 32.9523 14.1827 33.6367 13.7363 34.3784C13.8194 34.5257 13.9025 34.6731 13.9903 34.8189C14.1329 35.0509 14.285 35.2797 14.4386 35.5054Z" fill="#231815" stroke="#231815" stroke-miterlimit="10"/>
<path d="M39.7809 26.3729L39.9377 26.4325C40.4346 25.492 42.1667 25.6817 42.1557 26.9811C42.1557 26.7194 42.1432 26.4592 42.1275 26.1974C41.3443 25.7306 40.5115 25.3526 39.6445 25.0703C39.7121 25.5019 39.7576 25.9367 39.7809 26.3729V26.3729Z" fill="#231815" stroke="#231815" stroke-miterlimit="10"/>
<path d="M52.0308 41.263C52.1876 44.2507 50.4335 47.1068 47.6135 48.1868C46.3406 48.6743 45.0662 48.6492 43.7401 48.6492H25.6397C24.7807 48.6492 23.9155 48.6571 23.0611 48.6492C21.6285 48.6515 20.2182 48.2948 18.9589 47.6118C17.6996 46.9287 16.6314 45.9411 15.852 44.7391C15.0726 43.5371 14.6067 42.1589 14.4969 40.7305C14.3871 39.3021 14.6369 37.869 15.2235 36.5619C15.4755 35.9863 15.7909 35.4405 16.164 34.9348C16.2862 34.7703 16.4132 34.6119 16.5465 34.4646C18.8006 31.8484 22.4341 30.9078 25.7401 31.9283C26.2636 32.0851 26.7793 31.8123 27.0678 31.3875C29.3626 28.0126 33.5605 26.1943 37.5938 26.9827C38.3382 27.1288 39.0646 27.3554 39.7601 27.6583C39.8965 27.7179 40.0313 27.779 40.163 27.8433C40.2947 27.9076 40.4671 28.0001 40.616 28.0769C42.9693 29.3627 44.7415 31.5001 45.5694 34.0507C45.5981 34.2635 45.6945 34.4613 45.8445 34.6149C45.9944 34.7685 46.1898 34.8697 46.4018 34.9035C49.4553 35.5556 51.8568 38.0934 52.0308 41.263Z" fill="white"/>
<path d="M47.8862 34.0916C49.6777 34.7447 51.1819 36.008 52.1347 37.6598C53.0874 39.3116 53.4279 41.2462 53.0962 43.124C52.7644 45.0018 51.7818 46.7028 50.3208 47.9282C48.8598 49.1536 47.0138 49.8251 45.107 49.8249H23.0595C21.6491 49.8257 20.2553 49.5207 18.9742 48.9309C17.6931 48.3411 16.555 47.4805 15.6385 46.4085C14.722 45.3364 14.0488 44.0785 13.6654 42.7212C13.2819 41.3639 13.1973 39.9397 13.4173 38.5465C13.6373 37.1534 14.1568 35.8246 14.9399 34.6515C15.723 33.4785 16.7511 32.4892 17.9534 31.7519C19.1556 31.0145 20.5035 30.5465 21.9041 30.3803C23.3046 30.214 24.7246 30.3534 26.0661 30.7888C27.5148 28.6096 29.66 26.9865 32.1509 26.1846C34.6418 25.3828 37.331 25.4498 39.7789 26.3746L39.9356 26.4341C40.6717 26.7256 41.3752 27.0934 42.0346 27.5314C42.0691 27.5534 42.1036 27.5753 42.1365 27.5988C43.9975 28.852 45.4547 30.6186 46.3312 32.6839C46.4801 33.035 46.6134 33.3956 46.7278 33.7639C47.1216 33.8438 47.5089 33.9533 47.8862 34.0916ZM47.6134 48.1869C50.435 47.1068 52.1938 44.2508 52.0308 41.263C51.8568 38.0935 49.4553 35.5556 46.4159 34.8973C46.2039 34.8635 46.0084 34.7623 45.8585 34.6087C45.7086 34.4551 45.6121 34.2573 45.5835 34.0445C44.7556 31.4939 42.9833 29.3565 40.6301 28.0706C40.4733 27.9891 40.3307 27.9139 40.177 27.8371C40.0234 27.7603 39.9106 27.7117 39.7742 27.6521C39.0787 27.3492 38.3523 27.1226 37.6079 26.9765C33.5746 26.1927 29.3767 28.0064 27.0818 31.3813C26.7934 31.8061 26.2777 32.0835 25.7541 31.9221C22.4482 30.9016 18.8146 31.8421 16.5605 34.4584C16.4273 34.6151 16.3003 34.7719 16.178 34.9286C15.805 35.4343 15.4895 35.9801 15.2375 36.5557C14.651 37.8628 14.4012 39.2959 14.511 40.7243C14.6208 42.1527 15.0867 43.5308 15.8661 44.7329C16.6455 45.9349 17.7136 46.9225 18.9729 47.6056C20.2322 48.2886 21.6426 48.6453 23.0752 48.643C23.9342 48.6508 24.7995 48.643 25.6538 48.643H43.7401C45.0662 48.6493 46.3406 48.6744 47.6134 48.1869Z" fill="#231815"/>
</svg>
