<svg width="51" height="51" viewBox="0 0 51 51" fill="none" xmlns="http://www.w3.org/2000/svg">
<path d="M51 22.3962C51 17.9999 49.0504 13.9195 45.9178 11.7476C43.1093 9.7917 39.527 9.67541 36.5956 11.3532C33.5389 9.6617 29.8593 9.90578 26.9996 11.6102V7.148H29.1989C30.0267 7.148 30.6989 6.47356 30.6989 5.648C30.6989 4.81985 30.027 4.148 29.1989 4.148H26.9996V2.6543C26.9996 1.82615 26.3281 1.1543 25.4996 1.1543C24.6719 1.1543 23.9996 1.82578 23.9996 2.6543V4.14837H21.8011C20.9733 4.14837 20.3011 4.82022 20.3011 5.64837C20.3011 6.47393 20.973 7.14837 21.8011 7.14837H24V11.6106C21.13 9.90467 17.4485 9.6643 14.4063 11.3558C11.5059 9.69282 7.9063 9.78244 5.08407 11.7484C1.94815 13.918 0 17.9976 0 22.3962C0 23.6502 0.16 24.8962 0.45 25.9743C0.935556 28.7202 2.58185 32.8062 5.47333 38.4469V45.5562C5.47333 46.1069 5.77593 46.6147 6.26148 46.8765C8.39148 48.025 15.4978 49.8454 25.4996 49.8454C35.6637 49.8454 42.5389 48.3199 44.8474 46.8062C45.2693 46.5328 45.527 46.0602 45.527 45.5524V38.4506C48.3785 32.8843 50.0719 28.681 50.5311 26.0854C50.8415 24.8984 51 23.6543 51 22.3962ZM24.3419 15.7861C24.6278 16.1336 25.0519 16.3339 25.5041 16.3339C25.9544 16.3339 26.3789 16.128 26.6663 15.7861C28.7893 13.1836 32.6019 12.2236 35.5707 14.1961C37.9359 15.778 39.4048 18.8221 39.4048 22.1521C39.4048 23.1143 39.2778 24.0721 38.9985 25.1139C38.6919 26.7791 37.76 29.2247 36.2933 32.2984C32.6585 31.6732 28.6293 31.4428 25.5 31.4428C22.3722 31.4428 18.3437 31.6732 14.7081 32.2984C13.2363 29.201 12.2981 26.7243 11.9774 24.9958C11.7233 24.0591 11.5956 23.1013 11.5956 22.1461C11.5956 18.8202 13.0663 15.771 15.4333 14.1958C18.3759 12.2321 22.2237 13.1961 24.3419 15.7861ZM42.527 37.7165C41.9159 38.4236 39.5507 39.361 35.6715 40.0173C36.5348 38.4587 37.2967 37.0095 37.9882 35.648C40.4996 36.2202 42.0507 36.8806 42.527 37.361V37.7165ZM31.9607 40.4999C30.0352 40.6791 27.8867 40.7906 25.5 40.7906C23.1144 40.7906 20.9619 40.6754 19.0404 40.4999C17.9337 38.5524 16.9563 36.7536 16.0959 35.0899C18.6604 34.705 21.8059 34.4432 25.5004 34.4432C29.1959 34.4432 32.3422 34.705 34.9085 35.0839C34.047 36.7499 33.0681 38.5487 31.9607 40.4999ZM8.4737 37.5154C8.95 36.9669 10.5037 36.2654 13.0244 35.6736C13.7119 37.0373 14.4737 38.4743 15.3337 40.0332C11.4481 39.3928 9.0837 38.4862 8.4737 37.8691V37.5154ZM3 22.3962C3 18.9676 4.45407 15.8317 6.79185 14.2095C8.33407 13.1391 10.1467 12.8895 11.7996 13.4273C9.78963 15.6658 8.59556 18.8036 8.59556 22.1376C8.59556 23.3554 8.75963 24.5821 9.0537 25.6521C9.3837 27.4432 10.2763 29.8884 11.6904 32.9332C9.79963 33.4295 8.17963 34.0699 7.04556 34.8884C4.99778 30.6891 3.76333 27.5036 3.37593 25.3336C3.12593 24.3776 3 23.3895 3 22.3962ZM25.5 46.8495C16.9904 46.8495 10.8741 45.4747 8.4737 44.5799V41.1854C12.7081 43.1717 20.3359 43.795 25.5 43.795C30.6641 43.795 38.293 43.1717 42.5274 41.1854V44.658C40.2678 45.6443 34.5193 46.8495 25.5 46.8495ZM47.6015 25.455C47.2322 27.5254 46.0019 30.701 43.9526 34.8921C42.8237 34.0799 41.2026 33.4332 39.3159 32.9428C40.7182 29.9173 41.6085 27.5054 41.9233 25.7828C42.2456 24.5973 42.4078 23.3754 42.4078 22.1517C42.4078 18.8199 41.2144 15.6828 39.2063 13.4436C40.8785 12.8939 42.6656 13.1436 44.2104 14.2173C46.5467 15.8413 48.0033 18.975 48.0033 22.4039C48 23.398 47.8752 24.3854 47.6015 25.455Z" fill="#F6E9CB"/>
<path d="M51 22.3962C51 17.9999 49.0504 13.9195 45.9178 11.7476C43.1093 9.7917 39.527 9.67541 36.5956 11.3532C33.5389 9.6617 29.8593 9.90578 26.9996 11.6102V7.148H29.1989C30.0267 7.148 30.6989 6.47356 30.6989 5.648C30.6989 4.81985 30.027 4.148 29.1989 4.148H26.9996V2.6543C26.9996 1.82615 26.3281 1.1543 25.4996 1.1543C24.6719 1.1543 23.9996 1.82578 23.9996 2.6543V4.14837H21.8011C20.9733 4.14837 20.3011 4.82022 20.3011 5.64837C20.3011 6.47393 20.973 7.14837 21.8011 7.14837H24V11.6106C21.13 9.90467 17.4485 9.6643 14.4063 11.3558C11.5059 9.69282 7.9063 9.78244 5.08407 11.7484C1.94815 13.918 0 17.9976 0 22.3962C0 23.6502 0.16 24.8962 0.45 25.9743C0.935556 28.7202 2.58185 32.8062 5.47333 38.4469V45.5562C5.47333 46.1069 5.77593 46.6147 6.26148 46.8765C8.39148 48.025 15.4978 49.8454 25.4996 49.8454C35.6637 49.8454 42.5389 48.3199 44.8474 46.8062C45.2693 46.5328 45.527 46.0602 45.527 45.5524V38.4506C48.3785 32.8843 50.0719 28.681 50.5311 26.0854C50.8415 24.8984 51 23.6543 51 22.3962Z" fill="#F6E9CB" fill-opacity="0.5"/>
</svg>
