<svg width="111" height="192" viewBox="0 0 111 192" fill="none" xmlns="http://www.w3.org/2000/svg">
<rect opacity="0.5" width="5" height="192" fill="url(#paint0_linear)"/>
<g opacity="0.6">
<path fill-rule="evenodd" clip-rule="evenodd" d="M74.9213 33L83.5828 41.6351L74.9213 50.2701L66.2598 41.6351L74.9213 33ZM74.9248 36.8918L70.1635 41.6386L74.9248 46.3854L79.6862 41.6386L74.9248 36.8918Z" fill="#3C62A2" fill-opacity="0.5"/>
<path fill-rule="evenodd" clip-rule="evenodd" d="M88.3744 33L97.036 41.6351L88.3744 50.2701L79.7129 41.6351L88.3744 33ZM88.378 36.8918L83.6166 41.6386L88.378 46.3854L93.1393 41.6386L88.378 36.8918Z" fill="#EDD397" fill-opacity="0.5"/>
<path fill-rule="evenodd" clip-rule="evenodd" d="M81.6479 39.7059L90.3094 48.341L81.6479 56.9761L72.9863 48.341L81.6479 39.7059ZM81.6514 43.5977L76.8901 48.3445L81.6514 53.0913L86.4127 48.3445L81.6514 43.5977Z" fill="url(#paint1_linear)"/>
</g>
<g opacity="0.6">
<path fill-rule="evenodd" clip-rule="evenodd" d="M74.9213 135L83.5828 143.635L74.9213 152.27L66.2598 143.635L74.9213 135ZM74.9248 138.892L70.1635 143.639L74.9248 148.385L79.6862 143.639L74.9248 138.892Z" fill="#3C62A2" fill-opacity="0.5"/>
<path fill-rule="evenodd" clip-rule="evenodd" d="M88.3744 135L97.036 143.635L88.3744 152.27L79.7129 143.635L88.3744 135ZM88.378 138.892L83.6166 143.639L88.378 148.385L93.1393 143.639L88.378 138.892Z" fill="#EDD397" fill-opacity="0.5"/>
<path fill-rule="evenodd" clip-rule="evenodd" d="M81.6479 141.706L90.3094 150.341L81.6479 158.976L72.9863 150.341L81.6479 141.706ZM81.6514 145.598L76.8901 150.345L81.6514 155.091L86.4127 150.345L81.6514 145.598Z" fill="url(#paint2_linear)"/>
</g>
<path d="M91.9682 91.4424L72.6143 72L53.2603 91.4424L72.6143 110.885L91.9682 91.4424Z" fill="#3C62A2" fill-opacity="0.5"/>
<path d="M110.003 91.4424L90.6494 72L71.2955 91.4424L90.6494 110.885L110.003 91.4424Z" fill="#EDD397" fill-opacity="0.5"/>
<path d="M100.986 100.502L81.6318 81.0592L62.2779 100.502L81.6318 119.944L100.986 100.502Z" fill="url(#paint3_linear)"/>
<defs>
<linearGradient id="paint0_linear" x1="2.5" y1="0" x2="2.5" y2="192" gradientUnits="userSpaceOnUse">
<stop stop-color="white"/>
<stop offset="0.255208" stop-color="#EDD397"/>
<stop offset="0.494792" stop-color="#3C62A2"/>
<stop offset="0.739583" stop-color="#EDD397"/>
<stop offset="1" stop-color="white"/>
</linearGradient>
<linearGradient id="paint1_linear" x1="90.3094" y1="39.7059" x2="73.0393" y2="57.0289" gradientUnits="userSpaceOnUse">
<stop stop-color="#EDD397" stop-opacity="0.5"/>
<stop offset="1" stop-color="#3C62A2" stop-opacity="0.5"/>
</linearGradient>
<linearGradient id="paint2_linear" x1="90.3094" y1="141.706" x2="73.0393" y2="159.029" gradientUnits="userSpaceOnUse">
<stop stop-color="#EDD397" stop-opacity="0.5"/>
<stop offset="1" stop-color="#3C62A2" stop-opacity="0.5"/>
</linearGradient>
<linearGradient id="paint3_linear" x1="100.986" y1="100.502" x2="62.2779" y2="100.502" gradientUnits="userSpaceOnUse">
<stop stop-color="#EDD397" stop-opacity="0.5"/>
<stop offset="1" stop-color="#3C62A2" stop-opacity="0.5"/>
</linearGradient>
</defs>
</svg>
