<svg width="515" height="183" viewBox="0 0 515 183" fill="none" xmlns="http://www.w3.org/2000/svg">
<path d="M17.2 69H0L11.3 2.29999H28.4L41.9 37.9L56.2 2.29999H73.5L83.5 69H66.2L61.3 30.6L45.2 69H38.3L22.9 30.6L17.2 69Z" fill="#8095B8"/>
<path d="M138.804 2.29999V17H118.204V28.1H137.704V42.8H118.204V54.3H138.804V69H100.904V2.29999H138.804Z" fill="#8095B8"/>
<path d="M188.23 44.7V31.2H222.63C222.63 38.0667 221.796 43.9 220.13 48.7C218.53 53.4333 215.796 57.6 211.93 61.2C205.93 66.8 198.096 69.6 188.43 69.6C177.83 69.6 169.296 66.3 162.83 59.7C156.43 53.3 153.23 45.2667 153.23 35.6C153.23 25.4667 156.563 17.1333 163.23 10.6C169.763 4.06665 178.396 0.799988 189.13 0.799988C196.196 0.799988 202.196 2.29999 207.13 5.29999C212.33 8.49999 216.296 13.0667 219.03 19L202.53 25.8C201.463 23.1333 199.863 20.9 197.73 19.1C195.063 16.9 191.963 15.8 188.43 15.8C183.896 15.8 180.096 17.3333 177.03 20.4C173.163 24.2667 171.23 29.3667 171.23 35.7C171.23 41.5667 172.996 46.3667 176.53 50.1C179.73 53.5 183.796 55.2 188.73 55.2C192.663 55.2 195.863 54.1667 198.33 52.1C200.53 50.3 201.896 47.8333 202.43 44.7H188.23Z" fill="#8095B8"/>
<path d="M281.062 69L276.962 57.8H252.763L248.262 69H229.962L255.562 2.29999H274.462L299.562 69H281.062ZM257.562 44.6H272.362L264.862 23L257.562 44.6Z" fill="#8095B8"/>
<path d="M330.959 69H313.659V2.29999H330.959L362.859 43.1V2.29999H380.159V69H362.859L330.959 28.2V69Z" fill="#8095B8"/>
<path d="M166 114.3H193C200.067 114.3 205.5 116.267 209.3 120.2C213.1 124.067 215 129.067 215 135.2C215 141.067 213.233 145.7 209.7 149.1C207.233 151.433 204.167 152.967 200.5 153.7L221.4 181H199.9L183.3 155.4V181H166V114.3ZM183.3 127.7V144.2H186.6C190.333 144.2 193.133 143.3 195 141.5C196.467 140.033 197.2 138.167 197.2 135.9C197.2 133.567 196.433 131.7 194.9 130.3C193.167 128.567 190.4 127.7 186.6 127.7H183.3Z" fill="#8095B8"/>
<path d="M235.095 114.3H252.395V181H235.095V114.3Z" fill="#8095B8"/>
<path d="M290.143 181H272.843V114.3H290.143L322.043 155.1V114.3H339.343V181H322.043L290.143 140.2V181Z" fill="#8095B8"/>
<path d="M391.712 156.7V143.2H426.112C426.112 150.067 425.278 155.9 423.612 160.7C422.012 165.433 419.278 169.6 415.412 173.2C409.412 178.8 401.578 181.6 391.912 181.6C381.312 181.6 372.778 178.3 366.312 171.7C359.912 165.3 356.712 157.267 356.712 147.6C356.712 137.467 360.045 129.133 366.712 122.6C373.245 116.067 381.878 112.8 392.612 112.8C399.678 112.8 405.678 114.3 410.612 117.3C415.812 120.5 419.778 125.067 422.512 131L406.012 137.8C404.945 135.133 403.345 132.9 401.212 131.1C398.545 128.9 395.445 127.8 391.912 127.8C387.378 127.8 383.578 129.333 380.512 132.4C376.645 136.267 374.712 141.367 374.712 147.7C374.712 153.567 376.478 158.367 380.012 162.1C383.212 165.5 387.278 167.2 392.212 167.2C396.145 167.2 399.345 166.167 401.812 164.1C404.012 162.3 405.378 159.833 405.912 156.7H391.712Z" fill="#8095B8"/>
<path d="M514.153 147.7C514.153 157.567 510.653 165.867 503.653 172.6C496.72 179.2 487.953 182.5 477.353 182.5C466.753 182.5 457.986 179.2 451.053 172.6C444.053 165.867 440.553 157.567 440.553 147.7C440.553 143.1 441.42 138.6 443.153 134.2C444.953 129.8 447.586 125.967 451.053 122.7C457.986 116.1 466.753 112.8 477.353 112.8C487.953 112.8 496.72 116.1 503.653 122.7C507.12 125.967 509.72 129.8 511.453 134.2C513.253 138.6 514.153 143.1 514.153 147.7ZM477.353 129.6C471.886 129.6 467.386 131.367 463.853 134.9C460.32 138.367 458.553 142.733 458.553 148C458.553 152.867 460.32 157 463.853 160.4C467.52 163.933 472.02 165.7 477.353 165.7C482.82 165.7 487.286 163.967 490.753 160.5C494.353 156.9 496.153 152.633 496.153 147.7C496.153 142.633 494.353 138.367 490.753 134.9C487.02 131.367 482.553 129.6 477.353 129.6Z" fill="#8095B8"/>
<path d="M247 82L256.8 91.5C254.133 94.9 251.1 98.1333 247.7 101.2L262.6 117H241L235.2 110.9C228.267 115.967 220.8 118.5 212.8 118.5C205.667 118.5 200.2 116.633 196.4 112.9C192.8 109.433 191 105.033 191 99.7C191 94.5 192.667 90.2333 196 86.9C198.667 84.1667 202.3 82 206.9 80.4C205.433 78.6667 204.133 76.9 203 75.1C201.467 72.5667 200.7 69.8333 200.7 66.9C200.7 62.3 202.4 58.2333 205.8 54.7C209.667 50.7667 214.9 48.8 221.5 48.8C228.033 48.8 233.2 50.6333 237 54.3C240.533 57.7667 242.3 61.9333 242.3 66.8C242.3 70.8667 240.767 74.4333 237.7 77.5C235.433 79.7667 232.833 81.5 229.9 82.7L238.3 91.5C241.5 88.5667 244.4 85.4 247 82ZM225.7 100.4L215.2 89.1C211 91.5 208.9 94.1 208.9 96.9C208.9 98.7667 209.567 100.267 210.9 101.4C212.3 102.667 214.2 103.3 216.6 103.3C219.6 103.3 222.633 102.333 225.7 100.4ZM217.1 66.1C217.1 67.3667 217.7 68.8667 218.9 70.6C219.7 71.8 220.867 73.1333 222.4 74.6C223.8 73.8667 225.133 72.8667 226.4 71.6C227.8 70 228.5 68.3667 228.5 66.7C228.5 64.7 227.9 63.1667 226.7 62.1C225.567 61.1 224.233 60.6 222.7 60.6C221.167 60.6 219.9 61.0667 218.9 62C217.7 63.0667 217.1 64.4333 217.1 66.1Z" fill="#F6E9CB"/>
</svg>
