<svg width="67" height="50" viewBox="0 0 67 50" fill="none" xmlns="http://www.w3.org/2000/svg">
<path d="M52.2565 40.1975C55.4454 40.1986 58.521 39.0152 60.8867 36.8769C63.2524 34.7387 64.7396 31.7979 65.0598 28.6251C65.38 25.4524 64.5104 22.2738 62.6196 19.7059C60.7288 17.1381 57.9516 15.364 54.8268 14.728C53.8021 11.4166 51.8592 8.46392 49.2236 6.21261C46.588 3.9613 43.3678 2.50377 39.9371 2.00923C36.5063 1.5147 33.0056 2.00345 29.8415 3.41874C26.6773 4.83404 23.9796 7.11782 22.0614 10.0049C19.934 9.31446 17.6822 9.09345 15.4612 9.35712C13.2402 9.62079 11.1028 10.3629 9.19621 11.5322C7.28963 12.7016 5.65925 14.2704 4.41742 16.1306C3.17559 17.9907 2.35183 20.098 2.00291 22.3073C1.65399 24.5165 1.7882 26.7751 2.3963 28.9274C3.00441 31.0798 4.07194 33.0747 5.52533 34.7747C6.97872 36.4747 8.78342 37.8394 10.8151 38.7748C12.8467 39.7101 15.057 40.1938 17.2936 40.1926" fill="white"/>
<path d="M52.2563 42.0618C55.8528 42.0239 59.314 40.6855 62.0004 38.2939C64.6867 35.9023 66.4166 32.6191 66.8703 29.0511C67.7901 21.5937 62.6444 14.5166 55.3213 12.9282L56.6238 14.2307C54.3692 7.17352 48.3784 1.60034 41.0105 0.310206C37.1032 -0.377628 33.0803 0.084042 29.4304 1.63912C25.7806 3.19421 22.6609 5.77577 20.4503 9.0702L22.5558 8.21259C14.7504 5.80384 6.06248 9.14974 2.10756 16.3586C-1.66092 23.2318 -0.283784 32.1111 5.50318 37.4358C8.72376 40.3846 12.9243 42.0331 17.2909 42.0618C19.6922 42.0892 19.6922 38.3605 17.2909 38.3331C11.2006 38.266 5.76667 34.2067 4.15587 28.2905C3.38836 25.3858 3.59499 22.3096 4.74405 19.5337C5.89312 16.7578 7.92116 14.4356 10.5171 12.9232C13.8928 10.9768 17.8601 10.6636 21.5615 11.8071C22.3918 12.0556 23.2096 11.6231 23.667 10.9495C27.3062 5.59503 33.9632 2.7115 40.3592 3.96435C43.284 4.53713 46.0017 5.88371 48.2293 7.8638C50.4568 9.84388 52.1127 12.385 53.0244 15.2226C53.111 15.5335 53.2764 15.8167 53.5046 16.0449C53.7328 16.2731 54.016 16.4385 54.3269 16.5251C59.9275 17.7407 63.8973 22.9261 63.1789 28.7056C62.4978 34.1967 57.7101 38.2536 52.2413 38.3257C49.845 38.358 49.8376 42.0867 52.2413 42.0544L52.2563 42.0618Z" fill="#231815"/>
<path d="M26.063 36.9784L24.231 32.2056C23.8705 31.266 22.988 30.6172 21.9366 30.903C21.0392 31.1516 20.2711 32.2504 20.634 33.1974L22.466 37.9702C22.8265 38.9098 23.7089 39.5586 24.7604 39.2728C25.6578 39.0242 26.4259 37.9255 26.063 36.9784Z" fill="#2EA7E0"/>
<path d="M30.1577 47.6375L28.3257 42.8648C27.9652 41.9252 27.0828 41.2764 26.0313 41.5622C25.1339 41.8108 24.3658 42.9095 24.7287 43.8566L26.5608 48.6294C26.9212 49.569 27.8037 50.2178 28.8552 49.9319C29.7525 49.6834 30.5206 48.5846 30.1577 47.6375Z" fill="#2EA7E0"/>
<path d="M35.4995 36.9784L33.6675 32.2056C33.307 31.266 32.4246 30.6172 31.3731 30.903C30.4757 31.1516 29.7076 32.2504 30.0705 33.1974L31.9026 37.9702C32.263 38.9098 33.1455 39.5586 34.197 39.2728C35.0943 39.0242 35.8624 37.9255 35.4995 36.9784Z" fill="#2EA7E0"/>
<path d="M39.5933 47.6375L37.7612 42.8648C37.4008 41.9252 36.5183 41.2764 35.4668 41.5622C34.5694 41.8108 33.8013 42.9095 34.1643 43.8566L35.9963 48.6294C36.3567 49.569 37.2392 50.2178 38.2907 49.9319C39.1881 49.6834 39.9562 48.5846 39.5933 47.6375Z" fill="#2EA7E0"/>
<path d="M44.936 36.9784L43.104 32.2056C42.7436 31.266 41.8611 30.6172 40.8096 30.903C39.9122 31.1516 39.1441 32.2504 39.507 33.1974L41.3391 37.9702C41.6995 38.9098 42.582 39.5586 43.6335 39.2728C44.5309 39.0242 45.299 37.9255 44.936 36.9784Z" fill="#2EA7E0"/>
<path d="M49.0298 47.6375L47.1977 42.8648C46.8373 41.9252 45.9548 41.2764 44.9033 41.5622C44.006 41.8108 43.2379 42.9095 43.6008 43.8566L45.4328 48.6294C45.7933 49.569 46.6757 50.2178 47.7272 49.9319C48.6246 49.6834 49.3927 48.5846 49.0298 47.6375Z" fill="#2EA7E0"/>
</svg>
