<svg width="99" height="156" viewBox="0 0 99 156" fill="none" xmlns="http://www.w3.org/2000/svg">
<path fill-rule="evenodd" clip-rule="evenodd" d="M88.1492 155.715H10.243C3.09793 155.715 -1.84866 148.576 0.663895 141.887L11.3986 113.308C12.8972 109.316 16.7138 106.673 20.9777 106.673H77.4145C81.68 106.673 85.4967 109.316 86.9953 113.308L97.73 141.887C100.243 148.576 95.2959 155.715 88.1492 155.715" fill="#A0B5D8"/>
<path fill-rule="evenodd" clip-rule="evenodd" d="M0 146.059H98.3923V116.03H0V146.059Z" fill="#A0B5D8"/>
<path fill-rule="evenodd" clip-rule="evenodd" d="M88.1492 124.588H10.243C3.09793 124.588 -1.84866 117.448 0.663895 110.758L11.3986 82.1809C12.8972 78.1893 16.7138 75.5459 20.9777 75.5459H77.4145C81.68 75.5459 85.4967 78.1893 86.9953 82.1809L97.73 110.758C100.243 117.448 95.2959 124.588 88.1492 124.588" fill="#FFFFFE"/>
<path fill-rule="evenodd" clip-rule="evenodd" d="M84.7592 122.453H13.6328C7.10737 122.453 2.59263 115.936 4.8867 109.828L14.6877 83.7374C16.0549 80.0939 19.5404 77.6809 23.4355 77.6809H74.9582C78.8517 77.6809 82.3371 80.0939 83.7061 83.7374L93.5054 109.828C95.7994 115.936 91.2847 122.453 84.7592 122.453" fill="#414D5B"/>
<path fill-rule="evenodd" clip-rule="evenodd" d="M98.3921 34.6902C98.3921 53.8476 76.3663 69.3786 49.1959 69.3786C22.0256 69.3786 0.00146484 53.8476 0.00146484 34.6902C0.00146484 15.5311 22.0256 0 49.1959 0C76.3663 0 98.3921 15.5311 98.3921 34.6902" fill="#A0B5D8"/>
<path fill-rule="evenodd" clip-rule="evenodd" d="M10.243 26.5039H88.1492C95.2959 26.5039 100.243 33.6423 97.73 40.3319L86.9953 68.911C85.4967 72.9025 81.68 75.5459 77.4145 75.5459H20.9777C16.7138 75.5459 12.8972 72.9025 11.3986 68.911L0.663895 40.3319C-1.84866 33.6423 3.09793 26.5039 10.243 26.5039" fill="#FFFFFE"/>
<path fill-rule="evenodd" clip-rule="evenodd" d="M84.7592 29.0076H13.6328C7.10737 29.0076 2.59263 35.5231 4.8867 41.6324L14.6877 67.7234C16.0549 71.3669 19.5404 73.7799 23.4355 73.7799H74.9582C78.8517 73.7799 82.3371 71.3669 83.7061 67.7234L93.5054 41.6324C95.7994 35.5231 91.2847 29.0076 84.7592 29.0076" fill="#405588"/>
<path fill-rule="evenodd" clip-rule="evenodd" d="M43.0497 45.4192H55.3445L60.6267 50.1719H60.6324L60.6305 50.1753L60.6324 50.177H60.6296L55.3445 59.6874H43.0497L37.7646 50.177H37.7617L37.7636 50.1753L37.7617 50.1719H37.7674L43.0497 45.4192Z" fill="#F2DBD2"/>
<path fill-rule="evenodd" clip-rule="evenodd" d="M55.3445 45.4192H43.0497L37.7617 50.177H60.6324L55.3445 45.4192" fill="#F7FAF0"/>
<path fill-rule="evenodd" clip-rule="evenodd" d="M50.5241 45.4192L52.7544 50.1719L49.1961 59.5782L45.6221 50.1719L47.8712 45.4192H49.1961L50.5241 45.4192Z" fill="#FFFFFE"/>
<path fill-rule="evenodd" clip-rule="evenodd" d="M49.1961 110.023C37.2956 110.023 27.6465 100.378 27.6465 88.478C27.6465 76.5801 37.2956 66.9331 49.1961 66.9331C61.0983 66.9331 70.7457 76.5801 70.7457 88.478C70.7457 100.378 61.0983 110.023 49.1961 110.023ZM49.1961 61.1941C34.1242 61.1941 21.9062 73.4094 21.9062 88.478C21.9062 103.547 34.1242 115.764 49.1961 115.764C64.268 115.764 76.4877 103.547 76.4877 88.478C76.4877 73.4094 64.268 61.1941 49.1961 61.1941V61.1941Z" fill="#EDD397"/>
<path fill-rule="evenodd" clip-rule="evenodd" d="M56.3824 62.8103H42.0103C41.2695 62.8103 40.6636 62.2028 40.6636 61.4621V60.9263C40.6636 60.1856 41.2695 59.5781 42.0103 59.5781H56.3824C57.1249 59.5781 57.7291 60.1856 57.7291 60.9263V61.4621C57.7291 62.2028 57.1249 62.8103 56.3824 62.8103" fill="#E8D7C3"/>
<path fill-rule="evenodd" clip-rule="evenodd" d="M24.1116 90.6828C24.1116 75.6142 36.3295 63.3989 51.4014 63.3989C58.3758 63.3989 64.7374 66.0184 69.5611 70.3223C64.5633 64.7232 57.2953 61.1941 49.1961 61.1941C34.1242 61.1941 21.9062 73.4094 21.9062 88.478C21.9062 96.5737 25.4361 103.842 31.0364 108.838C26.7316 104.016 24.1116 97.6556 24.1116 90.6828" fill="#FFFFFE"/>
<path fill-rule="evenodd" clip-rule="evenodd" d="M74.1888 86.2731C74.1888 101.342 61.9708 113.559 46.8989 113.559C39.9246 113.559 33.5629 110.937 28.7393 106.634C33.7371 112.234 41.0067 115.764 49.1042 115.764C64.1761 115.764 76.3941 103.547 76.3941 88.4779C76.3941 80.3839 72.8642 73.1141 67.2622 68.1191C71.5687 72.9418 74.1888 79.3003 74.1888 86.2731" fill="#CDB377"/>
<path fill-rule="evenodd" clip-rule="evenodd" d="M93.5054 109.828L92.7441 107.799C83.2418 102.043 67.2908 98.2615 49.196 98.2615C31.1029 98.2615 15.152 102.043 5.64968 107.799L4.8867 109.828C2.59263 115.936 7.10737 122.453 13.6328 122.453H84.7592C91.2847 122.453 95.7994 115.936 93.5054 109.828" fill="#515D6B"/>
</svg>
