<svg width="50" height="50" viewBox="0 0 50 50" fill="none" xmlns="http://www.w3.org/2000/svg">
<path d="M25.0004 38.43C32.4176 38.43 38.4304 32.4172 38.4304 25C38.4304 17.5828 32.4176 11.5699 25.0004 11.5699C17.5831 11.5699 11.5703 17.5828 11.5703 25C11.5703 32.4172 17.5831 38.43 25.0004 38.43Z" fill="#F8B62D"/>
<path d="M37.2423 25C37.2012 30.0569 34.0321 34.7701 29.2271 36.4964C26.8316 37.354 24.2303 37.4539 21.7762 36.7825C19.322 36.111 17.1339 34.7007 15.5088 32.7429C12.259 28.8105 11.8852 23.06 14.4984 18.7015C17.1115 14.3431 22.379 11.9628 27.39 12.9874C30.1567 13.5644 32.6428 15.0706 34.4351 17.2559C36.2273 19.4412 37.218 22.1739 37.2423 25C37.255 26.5284 39.6306 26.5315 39.6179 25C39.5918 21.9987 38.6539 19.0762 36.9285 16.6202C35.2031 14.1642 32.7718 12.2908 29.9572 11.2485C24.2431 9.14372 17.5217 11.0078 13.697 15.7368C9.87229 20.4658 9.29581 27.2426 12.4459 32.4974C15.6133 37.7855 21.8801 40.5143 27.9158 39.3249C34.6862 37.9867 39.5704 31.8354 39.6179 25C39.6306 23.4717 37.255 23.4702 37.2423 25Z" fill="#231815"/>
<path d="M26.1881 6.21536V1.14741C26.1881 -0.380887 23.8125 -0.384055 23.8125 1.14741V6.21536C23.8125 7.74366 26.1881 7.74683 26.1881 6.21536Z" fill="#231815"/>
<path d="M16.6333 8.13171L14.0993 3.74635C13.3344 2.42235 11.2819 3.61807 12.0405 4.94524L14.5744 9.33059C15.3394 10.6546 17.3919 9.45888 16.6333 8.13171Z" fill="#231815"/>
<path d="M9.33093 14.5822L4.94557 12.0482C3.61841 11.2817 2.42111 13.3342 3.74669 14.107L8.13204 16.641C9.45921 17.4075 10.6565 15.355 9.33093 14.5822Z" fill="#231815"/>
<path d="M6.21536 23.8123H1.14741C-0.380887 23.8123 -0.384055 26.1879 1.14741 26.1879H6.21536C7.74366 26.1879 7.74683 23.8123 6.21536 23.8123Z" fill="#231815"/>
<path d="M8.13134 33.3669L3.74599 35.9009C2.42199 36.6658 3.61771 38.7183 4.94487 37.9597L9.33023 35.4257C10.6542 34.6608 9.45851 32.6083 8.13134 33.3669Z" fill="#231815"/>
<path d="M14.5824 40.6694L12.0484 45.0548C11.2819 46.3819 13.3344 47.5792 14.1073 46.2537L16.6412 41.8683C17.4078 40.5411 15.3553 39.3438 14.5824 40.6694Z" fill="#231815"/>
<path d="M23.8125 43.7846V48.8526C23.8125 50.3809 26.1881 50.384 26.1881 48.8526V43.7846C26.1881 42.2563 23.8125 42.2532 23.8125 43.7846Z" fill="#231815"/>
<path d="M33.3666 41.8683L35.9006 46.2537C36.6656 47.5777 38.7181 46.382 37.9595 45.0548L35.4255 40.6694C34.6606 39.3454 32.608 40.5412 33.3666 41.8683Z" fill="#231815"/>
<path d="M40.6695 35.4178L45.0549 37.9518C46.3821 38.7183 47.5794 36.6658 46.2538 35.8929L41.8684 33.359C40.5413 32.5924 39.344 34.645 40.6695 35.4178Z" fill="#231815"/>
<path d="M43.7841 26.1879H48.8521C50.3804 26.1879 50.3835 23.8123 48.8521 23.8123H43.7841C42.2558 23.8123 42.2527 26.1879 43.7841 26.1879Z" fill="#231815"/>
<path d="M41.8687 16.6332L46.2541 14.0992C47.5781 13.3343 46.3823 11.2817 45.0552 12.0404L40.6698 14.5743C39.3458 15.3393 40.5415 17.3918 41.8687 16.6332Z" fill="#231815"/>
<path d="M35.4178 9.33056L37.9518 4.94521C38.7183 3.61804 36.6658 2.42074 35.8929 3.74632L33.359 8.13168C32.5924 9.45884 34.645 10.6561 35.4178 9.33056Z" fill="#231815"/>
</svg>
