<svg width="50" height="50" viewBox="0 0 50 50" fill="none" xmlns="http://www.w3.org/2000/svg">
<path d="M50 22.8992C50 18.588 48.0886 14.5898 45.0174 12.4606C42.264 10.5448 38.752 10.4268 35.878 12.0764C32.3297 10.1098 27.9103 10.8012 25.0018 13.372C22.0864 10.7993 17.6547 10.1102 14.1235 12.0764C11.28 10.4449 7.75091 10.5332 4.98402 12.4606C1.90995 14.5858 0 18.588 0 22.8992C0 24.1305 0.156863 25.3502 0.441177 26.4072C0.917211 29.1033 2.53123 33.1051 5.36601 38.6352V45.6051C5.36601 46.145 5.66267 46.6428 6.13871 46.8996C8.22694 48.0256 15.1939 49.8121 24.9996 49.8121C34.9644 49.8121 41.7048 48.3146 43.968 46.8306C44.3816 46.5626 44.6343 46.1011 44.6343 45.6011V38.6389C47.4299 33.1817 49.0919 29.0648 49.5403 26.5161C49.8446 25.3502 50 24.1341 50 22.8992ZM25 11.1842C28.0294 11.1842 30.4956 8.71691 30.4956 5.68387C30.4956 2.65482 28.0312 0.1875 25 0.1875C21.9688 0.1875 19.5033 2.65482 19.5033 5.68387C19.5033 8.71691 21.9706 11.1842 25 11.1842Z" fill="#8095B8" fill-opacity="0.5"/>
<path d="M50 22.8992C50 18.588 48.0886 14.5898 45.0174 12.4606C42.264 10.5448 38.752 10.4268 35.878 12.0764C32.3297 10.1098 27.9103 10.8012 25.0018 13.372C22.0864 10.7993 17.6547 10.1102 14.1235 12.0764C11.28 10.4449 7.75091 10.5332 4.98402 12.4606C1.90995 14.5858 0 18.588 0 22.8992C0 24.1305 0.156863 25.3502 0.441177 26.4072C0.917211 29.1033 2.53123 33.1051 5.36601 38.6352V45.6051C5.36601 46.145 5.66267 46.6428 6.13871 46.8996C8.22694 48.0256 15.1939 49.8121 24.9996 49.8121C34.9644 49.8121 41.7048 48.3146 43.968 46.8306C44.3816 46.5626 44.6343 46.1011 44.6343 45.6011V38.6389C47.4299 33.1817 49.0919 29.0648 49.5403 26.5161C49.8446 25.3502 50 24.1341 50 22.8992ZM23.8646 16.4155C24.1449 16.7561 24.5606 16.9544 25.004 16.9544C25.4455 16.9544 25.8617 16.7521 26.1434 16.4155C28.2248 13.864 31.9626 12.9228 34.8733 14.8567C37.1921 16.4075 38.6322 19.3941 38.6322 22.6541C38.6322 23.6 38.5076 24.5401 38.2338 25.5608C37.9332 27.1922 37.0196 29.5898 35.5817 32.6036C32.0182 31.9929 28.0679 31.7648 24.9985 31.7648C21.9321 31.7648 17.9826 31.9929 14.4179 32.6036C12.9749 29.567 12.0552 27.1388 11.7411 25.4442C11.492 24.527 11.3667 23.5858 11.3667 22.6505C11.3667 19.3887 12.8086 16.4043 15.1293 14.8571C18.0174 12.9355 21.7879 13.8763 23.8646 16.4155ZM41.6895 37.9192C41.0919 38.6142 38.7752 39.535 34.9702 40.1788C35.8145 38.6468 36.5654 37.2278 37.2411 35.8952C39.7015 36.4522 41.2222 37.0993 41.6895 37.5706V37.9192ZM31.3341 40.6479C29.4463 40.824 27.3399 40.933 25 40.933C22.6612 40.933 20.553 40.82 18.667 40.6479C17.5821 38.7387 16.6238 36.9754 15.7803 35.344C18.2945 34.9667 21.3784 34.706 25.0004 34.706C28.6235 34.706 31.7102 34.9667 34.2259 35.336C33.3795 36.9715 32.4198 38.7387 31.3341 40.6479ZM8.30537 37.718C8.77269 37.1799 10.2959 36.4925 12.7669 35.9141C13.4408 37.2489 14.1877 38.6581 15.0312 40.1861C11.2215 39.5582 8.90196 38.6715 8.30356 38.0644L8.30537 37.718ZM2.94118 22.8992C2.94118 19.5368 4.36674 16.4624 6.65868 14.876C8.17248 13.8229 9.94771 13.5778 11.5683 14.1091C9.59586 16.3033 8.42702 19.3796 8.42702 22.6461C8.42702 23.8411 8.58787 25.0419 8.87618 26.0909C9.19789 27.8469 10.0748 30.2441 11.4611 33.2311C9.60748 33.7158 8.01925 34.3436 6.90741 35.1457C4.89978 31.0328 3.68954 27.9061 3.30973 25.7805C3.06463 24.8444 2.94118 23.8756 2.94118 22.8992ZM25 46.8709C16.6572 46.8709 10.6609 45.5208 8.30755 44.6457V41.3197C12.4568 43.2634 19.9372 43.8741 25 43.8741C30.0628 43.8741 37.5421 43.263 41.6935 41.3197V44.7224C39.476 45.6897 33.8406 46.8709 25 46.8709ZM46.6681 25.8941C46.3061 27.9239 45.0999 31.0372 43.0908 35.1501C41.984 34.352 40.3947 33.7202 38.545 33.2354C39.9198 30.2696 40.7927 27.9065 41.1013 26.2158C41.4172 25.0535 41.5763 23.8567 41.5763 22.6541C41.5763 19.3883 40.4063 16.3131 38.4375 14.1178C40.077 13.5778 41.829 13.8229 43.3435 14.8799C45.634 16.4722 47.0621 19.5444 47.0621 22.9061C47.0588 23.8796 46.9365 24.8524 46.6681 25.8941ZM25 11.1842C28.0294 11.1842 30.4956 8.71691 30.4956 5.68387C30.4956 2.65482 28.0312 0.1875 25 0.1875C21.9688 0.1875 19.5033 2.65482 19.5033 5.68387C19.5033 8.71691 21.9706 11.1842 25 11.1842ZM25 3.13158C26.4074 3.13158 27.5545 4.27682 27.5545 5.68605C27.5545 7.09818 26.4096 8.24705 25 8.24705C23.5897 8.24705 22.4448 7.09818 22.4448 5.68605C22.4444 4.27646 23.5926 3.13158 25 3.13158Z" fill="#8095B8"/>
</svg>
