<svg width="139" height="192" viewBox="0 0 139 192" fill="none" xmlns="http://www.w3.org/2000/svg">
<rect opacity="0.5" width="5" height="192" fill="url(#paint0_linear)"/>
<g opacity="0.6">
<path fill-rule="evenodd" clip-rule="evenodd" d="M102.921 33L111.583 41.6351L102.921 50.2701L94.2598 41.6351L102.921 33ZM102.925 36.8918L98.1635 41.6386L102.925 46.3854L107.686 41.6386L102.925 36.8918Z" fill="#3C62A2" fill-opacity="0.5"/>
<path fill-rule="evenodd" clip-rule="evenodd" d="M116.374 33L125.036 41.6351L116.374 50.2701L107.713 41.6351L116.374 33ZM116.378 36.8918L111.617 41.6386L116.378 46.3854L121.139 41.6386L116.378 36.8918Z" fill="#EDD397" fill-opacity="0.5"/>
<path fill-rule="evenodd" clip-rule="evenodd" d="M109.648 39.7059L118.309 48.341L109.648 56.9761L100.986 48.341L109.648 39.7059ZM109.651 43.5977L104.89 48.3445L109.651 53.0913L114.413 48.3445L109.651 43.5977Z" fill="url(#paint1_linear)"/>
</g>
<g opacity="0.6">
<path fill-rule="evenodd" clip-rule="evenodd" d="M102.921 135L111.583 143.635L102.921 152.27L94.2598 143.635L102.921 135ZM102.925 138.892L98.1635 143.639L102.925 148.385L107.686 143.639L102.925 138.892Z" fill="#3C62A2" fill-opacity="0.5"/>
<path fill-rule="evenodd" clip-rule="evenodd" d="M116.374 135L125.036 143.635L116.374 152.27L107.713 143.635L116.374 135ZM116.378 138.892L111.617 143.639L116.378 148.385L121.139 143.639L116.378 138.892Z" fill="#EDD397" fill-opacity="0.5"/>
<path fill-rule="evenodd" clip-rule="evenodd" d="M109.648 141.706L118.309 150.341L109.648 158.976L100.986 150.341L109.648 141.706ZM109.651 145.598L104.89 150.345L109.651 155.091L114.413 150.345L109.651 145.598Z" fill="url(#paint2_linear)"/>
</g>
<path d="M119.968 91.4424L100.614 72L81.2603 91.4424L100.614 110.885L119.968 91.4424Z" fill="#3C62A2" fill-opacity="0.5"/>
<path d="M138.003 91.4424L118.649 72L99.2955 91.4424L118.649 110.885L138.003 91.4424Z" fill="#EDD397" fill-opacity="0.5"/>
<path d="M128.986 100.502L109.632 81.0592L90.2779 100.502L109.632 119.944L128.986 100.502Z" fill="url(#paint3_linear)"/>
<defs>
<linearGradient id="paint0_linear" x1="2.5" y1="0" x2="2.5" y2="192" gradientUnits="userSpaceOnUse">
<stop stop-color="white"/>
<stop offset="0.255208" stop-color="#EDD397"/>
<stop offset="0.494792" stop-color="#3C62A2"/>
<stop offset="0.739583" stop-color="#EDD397"/>
<stop offset="1" stop-color="white"/>
</linearGradient>
<linearGradient id="paint1_linear" x1="118.309" y1="39.7059" x2="101.039" y2="57.0289" gradientUnits="userSpaceOnUse">
<stop stop-color="#EDD397" stop-opacity="0.5"/>
<stop offset="1" stop-color="#3C62A2" stop-opacity="0.5"/>
</linearGradient>
<linearGradient id="paint2_linear" x1="118.309" y1="141.706" x2="101.039" y2="159.029" gradientUnits="userSpaceOnUse">
<stop stop-color="#EDD397" stop-opacity="0.5"/>
<stop offset="1" stop-color="#3C62A2" stop-opacity="0.5"/>
</linearGradient>
<linearGradient id="paint3_linear" x1="128.986" y1="100.502" x2="90.2779" y2="100.502" gradientUnits="userSpaceOnUse">
<stop stop-color="#EDD397" stop-opacity="0.5"/>
<stop offset="1" stop-color="#3C62A2" stop-opacity="0.5"/>
</linearGradient>
</defs>
</svg>
