<svg width="223" height="128" viewBox="0 0 223 128" fill="none" xmlns="http://www.w3.org/2000/svg">
<path fill-rule="evenodd" clip-rule="evenodd" d="M131.522 40.4565L131.539 40.4396L126.872 35.7722L126.855 35.7891L126.838 35.7723L122.171 40.4397L122.187 40.4565L111.536 51.1084L96.1993 35.7722L96.1833 35.7883L96.1672 35.7722L76.1642 55.7753L80.8316 60.4427L80.8485 60.4258L91.5333 71.1106L91.5331 71.1108L96.2005 75.7782L96.2007 75.778L106.869 86.4465L106.869 86.4468L111.536 91.1142L111.537 91.114L111.537 91.1143L116.204 86.4469L116.204 86.4466L146.875 55.7755L142.208 51.1081L142.191 51.1251L131.522 40.4565ZM96.1833 45.091L85.5159 55.7584L96.2007 66.4432L106.868 55.7758L96.1833 45.091ZM111.536 60.4432L100.868 71.1107L111.537 81.7792L122.204 71.1117L111.536 60.4432ZM126.871 66.4443L137.523 55.7924L126.855 45.1239L116.203 55.7758L126.871 66.4443Z" fill="#F6E9CB"/>
<path d="M83.9699 25H82.3059L84.5459 13.528L88.2579 21.816L92.0019 13.528L94.0179 25H92.3539L91.2659 18.568L88.1619 25.496L85.0899 18.552L83.9699 25ZM103.259 14.328V15.864H99.0029V18.568H103.131V20.104H99.0029V23.464H103.259V25H97.3709V14.328H103.259ZM112.011 20.952V19.448H116.411V19.528C116.411 21.384 115.883 22.824 114.827 23.848C113.888 24.7547 112.678 25.208 111.195 25.208C109.712 25.208 108.502 24.7227 107.563 23.752C106.507 22.664 105.979 21.32 105.979 19.72C105.979 18.92 106.123 18.1733 106.411 17.48C106.699 16.776 107.072 16.1947 107.531 15.736C108.011 15.256 108.598 14.872 109.291 14.584C109.995 14.2853 110.747 14.136 111.547 14.136C112.603 14.136 113.531 14.36 114.331 14.808C115.067 15.224 115.643 15.7573 116.059 16.408L114.763 17.32C114.379 16.7867 113.942 16.3813 113.451 16.104C112.928 15.7947 112.299 15.64 111.563 15.64C110.422 15.64 109.483 16.008 108.747 16.744C108.395 17.096 108.118 17.5387 107.915 18.072C107.712 18.6053 107.611 19.16 107.611 19.736C107.611 20.8773 107.979 21.8427 108.715 22.632C109.387 23.3467 110.278 23.704 111.387 23.704C112.336 23.704 113.131 23.3893 113.771 22.76C114.294 22.248 114.592 21.6453 114.667 20.952H112.011ZM126.769 25L125.649 22.424H121.089L119.921 25H118.161L123.473 13.704L128.529 25H126.769ZM121.761 20.888H124.993L123.409 17.272L121.761 20.888ZM132.629 25H130.997V13.608L138.741 21.72V14.328H140.373V25.656L132.629 17.544V25Z" fill="#8095B8"/>
<path d="M85.8994 103.328H87.8034C89.062 103.328 90.0007 103.536 90.6194 103.952C91.462 104.517 91.8834 105.355 91.8834 106.464C91.8834 107.221 91.6647 107.867 91.2274 108.4C90.8007 108.933 90.23 109.28 89.5154 109.44L92.8434 114H90.8754L87.8194 109.632H87.5314V114H85.8994V103.328ZM87.5314 104.832V108.224H88.0434C88.182 108.224 88.3207 108.219 88.4594 108.208C88.598 108.197 88.7847 108.16 89.0194 108.096C89.2647 108.032 89.4727 107.947 89.6434 107.84C89.8247 107.723 89.9794 107.547 90.1074 107.312C90.246 107.077 90.3154 106.8 90.3154 106.48C90.3154 105.381 89.574 104.832 88.0914 104.832H87.5314ZM95.5663 103.328H97.1983V114H95.5663V103.328ZM102.506 114H100.874V102.608L108.618 110.72V103.328H110.25V114.656L102.506 106.544V114ZM119.451 109.952V108.448H123.851V108.528C123.851 110.384 123.323 111.824 122.267 112.848C121.329 113.755 120.118 114.208 118.635 114.208C117.153 114.208 115.942 113.723 115.003 112.752C113.947 111.664 113.419 110.32 113.419 108.72C113.419 107.92 113.563 107.173 113.851 106.48C114.139 105.776 114.513 105.195 114.971 104.736C115.451 104.256 116.038 103.872 116.731 103.584C117.435 103.285 118.187 103.136 118.987 103.136C120.043 103.136 120.971 103.36 121.771 103.808C122.507 104.224 123.083 104.757 123.499 105.408L122.203 106.32C121.819 105.787 121.382 105.381 120.891 105.104C120.369 104.795 119.739 104.64 119.003 104.64C117.862 104.64 116.923 105.008 116.187 105.744C115.835 106.096 115.558 106.539 115.355 107.072C115.153 107.605 115.051 108.16 115.051 108.736C115.051 109.877 115.419 110.843 116.155 111.632C116.827 112.347 117.718 112.704 118.827 112.704C119.777 112.704 120.571 112.389 121.211 111.76C121.734 111.248 122.033 110.645 122.107 109.952H119.451ZM128.092 104.72C129.148 103.664 130.471 103.136 132.06 103.136C133.649 103.136 134.972 103.664 136.028 104.72C137.084 105.776 137.612 107.093 137.612 108.672C137.612 110.251 137.084 111.568 136.028 112.624C134.972 113.68 133.649 114.208 132.06 114.208C130.471 114.208 129.148 113.68 128.092 112.624C127.036 111.568 126.508 110.251 126.508 108.672C126.508 107.093 127.036 105.776 128.092 104.72ZM129.244 111.584C129.98 112.331 130.919 112.704 132.06 112.704C133.201 112.704 134.14 112.331 134.876 111.584C135.612 110.827 135.98 109.856 135.98 108.672C135.98 107.488 135.612 106.523 134.876 105.776C134.14 105.019 133.201 104.64 132.06 104.64C130.919 104.64 129.98 105.019 129.244 105.776C128.508 106.523 128.14 107.488 128.14 108.672C128.14 109.856 128.508 110.827 129.244 111.584Z" fill="#8095B8"/>
<path d="M34.3326 74V53.372H30.1566L32.1726 49.988H38.0046V74H34.3326ZM59.8665 71.804C58.3545 73.532 56.5425 74.396 54.4305 74.396C52.3185 74.396 50.5065 73.532 48.9945 71.804C46.9545 69.476 45.9345 66.212 45.9345 62.012C45.9345 57.788 46.9545 54.512 48.9945 52.184C50.5065 50.456 52.3185 49.592 54.4305 49.592C56.5425 49.592 58.3545 50.456 59.8665 52.184C61.9065 54.512 62.9265 57.788 62.9265 62.012C62.9265 66.212 61.9065 69.476 59.8665 71.804ZM57.6705 54.812C56.8065 53.492 55.7265 52.832 54.4305 52.832C53.1345 52.832 52.0545 53.492 51.1905 54.812C50.0865 56.444 49.5345 58.832 49.5345 61.976C49.5345 65.096 50.0865 67.496 51.1905 69.176C52.0545 70.496 53.1345 71.156 54.4305 71.156C55.7265 71.156 56.8065 70.496 57.6705 69.176C58.7745 67.496 59.3265 65.096 59.3265 61.976C59.3265 58.832 58.7745 56.444 57.6705 54.812Z" fill="#8095B8"/>
<path d="M175.157 70.616V74H159.029L167.345 63.92C168.593 62.408 169.553 61.16 170.225 60.176C171.065 58.928 171.485 57.776 171.485 56.72C171.485 55.64 171.137 54.728 170.441 53.984C169.745 53.216 168.761 52.832 167.489 52.832C166.217 52.832 165.209 53.252 164.465 54.092C163.721 54.932 163.313 55.964 163.241 57.188H159.713C159.809 55.076 160.481 53.324 161.729 51.932C163.121 50.372 164.993 49.592 167.345 49.592C169.769 49.592 171.665 50.3 173.033 51.716C174.401 53.132 175.085 54.836 175.085 56.828C175.085 58.484 174.509 60.164 173.357 61.868C172.733 62.804 171.593 64.244 169.937 66.188L166.193 70.616H175.157ZM190.262 49.16L192.926 51.14L187.202 58.376C187.682 58.28 188.186 58.232 188.714 58.232C190.97 58.232 192.818 58.976 194.258 60.464C195.674 61.952 196.382 63.824 196.382 66.08C196.382 68.552 195.59 70.568 194.006 72.128C192.47 73.64 190.406 74.396 187.814 74.396C185.198 74.396 183.134 73.616 181.622 72.056C180.23 70.592 179.534 68.78 179.534 66.62C179.534 65.036 179.918 63.5 180.686 62.012C180.854 61.676 181.022 61.364 181.19 61.076C181.382 60.764 181.586 60.44 181.802 60.104C182.042 59.768 182.222 59.528 182.342 59.384C182.462 59.216 182.678 58.928 182.99 58.52C183.326 58.088 183.53 57.824 183.602 57.728L190.262 49.16ZM191.378 62.696C190.49 61.808 189.362 61.364 187.994 61.364C186.626 61.364 185.474 61.808 184.538 62.696C183.602 63.584 183.134 64.772 183.134 66.26C183.134 67.748 183.602 68.936 184.538 69.824C185.474 70.712 186.626 71.156 187.994 71.156C189.362 71.156 190.49 70.712 191.378 69.824C192.314 68.888 192.782 67.7 192.782 66.26C192.782 64.82 192.314 63.632 191.378 62.696Z" fill="#8095B8"/>
</svg>
