<svg width="262" height="287" viewBox="0 0 262 287" fill="none" xmlns="http://www.w3.org/2000/svg">
<g opacity="0.5">
<path fill-rule="evenodd" clip-rule="evenodd" d="M192.489 97.1001C203.226 98.959 219.249 104.117 224.9 90.7828C228.328 82.682 222.681 76.9985 214.483 79.0879C208.478 80.6358 202.505 84.6482 198.12 89.0214C195.815 91.3309 193.966 94.0917 191.941 96.6392" fill="#688EBC"/>
<path fill-rule="evenodd" clip-rule="evenodd" d="M180.915 101.791C188.776 100.599 213.509 105.63 204.74 118.085C198.478 126.994 187.888 114.718 184.526 109.393C182.91 106.839 181.454 104.931 179.132 102.917" fill="#688EBC"/>
<path fill-rule="evenodd" clip-rule="evenodd" d="M179.386 101.4C184.601 97.813 189.656 92.9833 192.006 86.9923C193.982 81.9976 193.799 70.5039 185.542 72.6623C178.159 74.5906 174.438 84.99 175.032 91.7526C175.333 95.2737 175.975 98.5978 176.036 102.143" fill="#688EBC"/>
<path fill-rule="evenodd" clip-rule="evenodd" d="M165.161 122.052C169.592 118.806 175.775 116.701 181.261 116.85C186.732 116.997 194.735 120.628 196.08 126.498C197.354 132.088 191.989 135.628 187.008 135.33C182.039 135.034 177.09 132.502 172.936 129.947C169.479 127.804 166.644 124.906 163.631 122.196" fill="#688EBC"/>
<path fill-rule="evenodd" clip-rule="evenodd" d="M131.512 99.1886C138.79 95.0773 146.926 89.6448 149.046 80.9976C151.233 72.0601 143.925 58.9333 134.088 66.7975C122.925 75.7485 129.584 87.9671 129.841 99.1401" fill="#688EBC"/>
<path fill-rule="evenodd" clip-rule="evenodd" d="M121.755 118.271C126.785 113.008 131.232 107.146 137.528 103.274C142.228 100.391 154.059 97.6111 153.52 106.68C152.91 116.82 138.696 118.874 131.225 119.315C128.116 119.499 125.483 119.632 122.425 118.905" fill="#688EBC"/>
<path fill-rule="evenodd" clip-rule="evenodd" d="M119.191 117.096C123.107 112.017 121.578 102.298 118.284 97.2009C113.168 89.2643 103.783 92.3354 102.306 100.945C100.287 112.718 112.083 115.672 120.751 118.31" fill="#688EBC"/>
<path fill-rule="evenodd" clip-rule="evenodd" d="M80.2303 93.3413C87.924 87.6886 97.4911 81.0965 100.147 71.4466C102.482 62.922 94.0117 51.1891 85.2068 58.6978C76.6404 66.0067 80.0437 77.2481 80.046 86.5752C80.0576 89.1119 79.7796 91.6796 79.6867 94.2248" fill="#688EBC"/>
<path fill-rule="evenodd" clip-rule="evenodd" d="M70.5863 116.983C77.4418 116.402 85.633 114.685 91.2413 110.561C94.9052 107.883 99.9453 98.5769 93.7809 95.6242C84.9861 91.4088 75.1226 110.563 71.0495 116.419" fill="#688EBC"/>
<path fill-rule="evenodd" clip-rule="evenodd" d="M70.8797 115.699C73.5721 107.55 74.8465 98.0771 71.7678 89.8414C67.5748 78.6738 56.9336 81.8919 54.9701 92.4957C53.5176 100.253 56.7268 104.835 62.1056 109.486C64.7319 111.744 66.453 114.966 68.7946 117.539" fill="#688EBC"/>
<path fill-rule="evenodd" clip-rule="evenodd" d="M59.9043 143.6C69.2698 142.358 79.522 141.325 87.9782 136.678C93.2561 133.784 100.942 124.563 92.1767 120.778C84.6784 117.552 76.452 124.979 72.0112 130.254C68.0087 134.995 63.8096 139.224 59.2832 143.457" fill="#688EBC"/>
<path fill-rule="evenodd" clip-rule="evenodd" d="M58.0104 140.607C61.6135 133.886 60.2908 122.533 57.0617 116.094C52.0442 106.072 38.4022 107.141 36.3484 118.772C34.0221 131.967 47.8262 136.68 57.1578 141.418" fill="#688EBC"/>
<path fill-rule="evenodd" clip-rule="evenodd" d="M47.1413 164.906C53.5276 165.257 61.5054 166.48 66.709 161.721C69.1584 159.466 72.4045 152.657 68.0394 150.891C63.978 149.26 59.1334 153.119 56.4263 155.489C52.9099 158.576 49.2103 161.156 44.6335 162.205" fill="#688EBC"/>
<path fill-rule="evenodd" clip-rule="evenodd" d="M46.1213 162.22C48.0652 156.899 47.0904 150.179 44.9883 145.178C42.5207 139.273 33.8242 132.351 29.4444 141.083C23.8123 152.273 40.4083 159.701 46.8225 165.565" fill="#688EBC"/>
<path fill-rule="evenodd" clip-rule="evenodd" d="M158.406 174.189C165.373 167.891 185.423 164.151 192.976 171.114C200.467 178.057 190.693 186.879 183.531 187.07C173.334 187.349 165.73 179.766 157.896 174.226" fill="#688EBC"/>
<path fill-rule="evenodd" clip-rule="evenodd" d="M140.951 172.758C147.784 175.448 161.316 183.412 161.146 191.836C161.035 197.189 156.709 200.149 151.906 198.283C146.063 196.005 143.898 189.74 142.785 184.055C142.051 180.239 140.452 176.97 139.37 173.212" fill="#688EBC"/>
<path fill-rule="evenodd" clip-rule="evenodd" d="M135.704 171.487C142.509 170.722 149.145 167.673 154.235 163.031C158.284 159.34 163.284 149.538 154.477 148.113C142.766 146.218 137.927 164.249 133.617 171.993" fill="#688EBC"/>
<path fill-rule="evenodd" clip-rule="evenodd" d="M106.332 169.106C114.585 167.807 122.256 162.945 128.365 157.404C131.722 154.367 139.082 145.243 131.223 142.46C124.406 140.05 117.21 149.169 114.578 154.229C112.391 158.449 111.458 162.394 108.206 166.018" fill="#688EBC"/>
<path fill-rule="evenodd" clip-rule="evenodd" d="M108.852 170.897C118.515 172.917 132.889 181.323 133.262 192.586C133.406 197.386 130.548 204.068 125.037 203.198C110.237 200.887 110.392 182.113 104.693 171.891" fill="#688EBC"/>
<path fill-rule="evenodd" clip-rule="evenodd" d="M86.1979 170.395C95.2915 174.111 104.563 181.059 101.3 192.304C99.9645 196.888 94.4919 200.552 89.8897 197.885C84.8669 194.982 85.6569 186.605 86.1737 181.673C86.6477 177.073 85.6191 174.704 82.8939 170.848" fill="#688EBC"/>
<path fill-rule="evenodd" clip-rule="evenodd" d="M206.353 94.7084C167.591 103.29 134.743 129.587 102.242 150.947C69.5528 172.44 34.7248 195.347 -2.49873 208.133C-3.67356 208.544 -4.45526 206.78 -3.40088 206.153C32.3245 184.793 69.2618 165.977 104.118 143.063C136.201 121.972 167.735 101.13 205.749 92.7086C207.039 92.4111 207.658 94.4185 206.353 94.7084Z" fill="#2C5292"/>
<path fill-rule="evenodd" clip-rule="evenodd" d="M11.1893 198.886C51.3395 168.581 64.4342 118.912 86.9414 76.2808C87.4288 75.3606 89.083 75.898 88.7061 76.9452C72.4943 122.52 56.3671 174.899 12.3948 200.802C11.1275 201.547 10.0423 199.745 11.1893 198.886Z" fill="#2C5292"/>
<path fill-rule="evenodd" clip-rule="evenodd" d="M50.9429 178.755C85.0948 154.093 137.504 171.019 175.149 175.823C176.071 175.938 175.886 177.381 174.984 177.407C133.334 178.258 91.969 163.118 51.7227 180.47C50.6861 180.91 50.1235 179.342 50.9429 178.755Z" fill="#2C5292"/>
<path fill-rule="evenodd" clip-rule="evenodd" d="M90.7605 154.433C112.325 132.972 122.349 108.046 136.127 81.676C136.663 80.673 138.295 81.2544 138.017 82.3842C131.21 110.26 115.754 139.37 91.5015 155.31C90.963 155.674 90.2998 154.888 90.7605 154.433Z" fill="#2C5292"/>
<path fill-rule="evenodd" clip-rule="evenodd" d="M126.418 131.596C141.919 119.234 164.534 120.723 182.702 124.359C183.205 124.455 183.143 125.278 182.615 125.248C164.628 124.146 143.013 122.674 127.081 132.651C126.37 133.092 125.806 132.093 126.418 131.596Z" fill="#2C5292"/>
<path fill-rule="evenodd" clip-rule="evenodd" d="M142.27 165.551C142.018 168.93 139.06 174.229 135.066 173.453C134.413 173.325 134.109 172.707 134.211 172.085C134.476 170.51 135.268 169.822 136.457 168.714C137.895 167.387 139.017 165.825 140.665 164.72C141.31 164.284 142.324 164.75 142.27 165.551Z" fill="#2C5292"/>
<path fill-rule="evenodd" clip-rule="evenodd" d="M144.366 180.045C140.905 178.281 138.675 175.598 136.603 172.483C136.231 171.932 136.847 170.983 137.547 171.2C141.64 172.39 146.121 174.053 145.866 179.088C145.838 179.805 145.041 180.386 144.366 180.045Z" fill="#2C5292"/>
<path fill-rule="evenodd" clip-rule="evenodd" d="M118.522 161.12C117.817 165.469 113.479 171.193 108.523 169.876C107.911 169.715 107.372 169.029 107.572 168.365C108.672 164.621 113.179 161.478 116.432 159.628C117.503 159.016 118.703 159.928 118.522 161.12Z" fill="#2C5292"/>
<path fill-rule="evenodd" clip-rule="evenodd" d="M113.807 178.917C112.09 175.325 108.646 172.331 105.625 169.792C104.958 169.234 105.661 168.328 106.405 168.383C112.325 168.789 115.226 172.669 115.446 178.372C115.481 179.186 114.168 179.689 113.807 178.917Z" fill="#2C5292"/>
<path fill-rule="evenodd" clip-rule="evenodd" d="M88.2148 178.331C86.5686 175.744 84.0282 173.807 81.9145 171.644C81.2662 170.97 81.7949 169.996 82.6551 170.149C86.891 170.855 90.1579 172.482 91.2271 176.991C91.6715 178.828 89.2988 180.053 88.2148 178.331Z" fill="#2C5292"/>
<path fill-rule="evenodd" clip-rule="evenodd" d="M48.6063 162.521C50.4307 161.328 52.094 160.635 54.3148 160.407C54.7796 160.346 55.0372 161.139 54.6156 161.344C52.9063 162.172 51.336 163.252 49.6803 164.201C48.6459 164.805 47.6057 163.169 48.6063 162.521Z" fill="#2C5292"/>
<path fill-rule="evenodd" clip-rule="evenodd" d="M45.8807 165.395C44.773 159.978 53.7691 158.45 57.4662 159.702C58.3543 159.999 58.7508 161.001 58.1241 161.748C56.7215 163.42 55.1027 164.159 53.0253 164.798C51.0137 165.408 48.7002 166.693 46.5678 166.036C46.2681 165.952 45.9414 165.722 45.8807 165.395Z" fill="#2C5292"/>
<path fill-rule="evenodd" clip-rule="evenodd" d="M43.8774 164.517C41.4248 161.099 40.2857 156.857 37.7514 153.422C37.2244 152.727 37.9494 151.888 38.6807 152.055C44.181 153.34 48.5795 158.832 46.3025 164.49C45.8728 165.543 44.4707 165.349 43.8774 164.517Z" fill="#2C5292"/>
<path fill-rule="evenodd" clip-rule="evenodd" d="M59.9599 139.663C62.3091 136.526 66.7828 135.765 70.3656 135.539C71.1553 135.494 71.5897 136.429 71.0077 137.028C68.3576 139.788 64.2988 140.95 60.648 141.245C59.7119 141.314 59.4729 140.318 59.9599 139.663Z" fill="#2C5292"/>
<path fill-rule="evenodd" clip-rule="evenodd" d="M59.1569 140.477C55.1775 138.578 55.0888 133.947 55.8507 130.131C55.9944 129.452 56.9943 129.066 57.4812 129.611C60.0313 132.492 62.2088 136.128 60.441 140.054C60.2313 140.542 59.6031 140.68 59.1569 140.477Z" fill="#2C5292"/>
<path fill-rule="evenodd" clip-rule="evenodd" d="M71.5008 111.924C74.5887 108.988 78.4349 106.866 82.333 105.237C83.0095 104.96 83.7008 105.847 83.3331 106.456C80.9442 110.339 76.8527 113.119 72.2351 113.543C71.4358 113.62 70.9006 112.482 71.5008 111.924Z" fill="#2C5292"/>
<path fill-rule="evenodd" clip-rule="evenodd" d="M69.6142 112.365C67.1832 109.488 66.6788 105.733 68.0715 102.078C68.4599 101.052 69.5879 100.863 70.2257 101.652C72.3816 104.271 74.4383 107.46 73.2186 111.152C72.7731 112.506 70.703 113.637 69.6142 112.365Z" fill="#2C5292"/>
<path fill-rule="evenodd" clip-rule="evenodd" d="M122.951 115.22C125.157 110.799 131.965 108.521 136.63 108.81C137.744 108.883 138.093 110.134 137.242 110.803C133.91 113.44 128.653 117.304 124.259 117.303C123.191 117.297 122.46 116.185 122.951 115.22Z" fill="#2C5292"/>
<path fill-rule="evenodd" clip-rule="evenodd" d="M120.988 114.945C116.131 113.832 114.546 106.979 115.262 102.802C115.44 101.755 116.738 101.508 117.481 102.121C120.757 104.852 125.581 110.195 122.378 114.516C122.083 114.925 121.449 115.059 120.988 114.945Z" fill="#2C5292"/>
<path fill-rule="evenodd" clip-rule="evenodd" d="M181.147 100.699C184.02 101.589 186.484 102.499 188.329 105.129C188.739 105.705 188.199 106.341 187.611 106.215C184.964 105.616 182.8 104.341 180.456 102.863C179.333 102.153 179.822 100.295 181.147 100.699Z" fill="#2C5292"/>
<path fill-rule="evenodd" clip-rule="evenodd" d="M179.419 102.869C175.811 100.494 178.672 96.088 180.921 94.0382C181.402 93.5855 182.472 93.6165 182.651 94.4669C183.074 96.595 183.325 98.6413 182.471 100.679C182.088 101.58 180.835 103.801 179.419 102.869Z" fill="#2C5292"/>
<path fill-rule="evenodd" clip-rule="evenodd" d="M193.055 97.5606C195.377 95.1289 198.454 94.1679 201.492 92.9435C204.725 91.6428 207.247 89.6741 210.842 90.4448C211.492 90.5859 211.622 91.3201 211.261 91.8161C207.028 97.3997 199.499 97.2409 193.371 98.2338C193.005 98.2886 192.84 97.7947 193.055 97.5606Z" fill="#2C5292"/>
</g>
</svg>
