<svg width="165" height="259" viewBox="0 0 165 259" fill="none" xmlns="http://www.w3.org/2000/svg">
<g opacity="0.5">
<path fill-rule="evenodd" clip-rule="evenodd" d="M68.9042 223.432C60.9373 230.865 47.1474 240.52 54.3598 253.078C58.7448 260.703 66.6856 259.636 69.9725 251.841C72.3667 246.12 72.7775 238.936 71.9409 232.8C71.4927 229.568 70.4095 226.427 69.6027 223.274" fill="#688EBC"/>
<path fill-rule="evenodd" clip-rule="evenodd" d="M72.1578 211.375C68.3592 218.359 49.4086 235.031 44.7807 220.518C41.4637 210.147 57.6438 209.123 63.9187 209.66C66.93 209.915 69.3299 209.907 72.3374 209.274" fill="#688EBC"/>
<path fill-rule="evenodd" clip-rule="evenodd" d="M73.3929 210.392C73.1014 216.715 73.8966 223.661 77.2515 229.153C80.0385 233.744 89.3082 240.542 92.5761 232.658C95.4993 225.61 89.4596 216.362 83.7115 212.75C80.7239 210.863 77.687 209.367 74.8243 207.274" fill="#688EBC"/>
<path fill-rule="evenodd" clip-rule="evenodd" d="M65.5279 186.581C65.4379 192.072 63.3804 198.272 59.9475 202.554C56.5258 206.825 48.798 211.009 43.3076 208.535C38.0833 206.173 38.503 199.759 41.7486 195.97C44.9866 192.189 49.9936 189.775 54.5396 188.008C58.336 186.547 62.3573 186.039 66.3374 185.274" fill="#688EBC"/>
<path fill-rule="evenodd" clip-rule="evenodd" d="M104.075 173.576C102.955 181.86 102.37 191.625 107.98 198.539C113.781 205.68 128.657 207.786 128.332 195.196C127.942 180.893 114.183 178.818 105.123 172.274" fill="#688EBC"/>
<path fill-rule="evenodd" clip-rule="evenodd" d="M94.7613 154.274C95.9178 161.461 97.9029 168.547 97.1847 175.903C96.6433 181.39 91.7118 192.498 84.8098 186.59C77.0977 179.979 84.0475 167.41 88.2093 161.19C89.9403 158.601 91.4245 156.423 93.8516 154.424" fill="#688EBC"/>
<path fill-rule="evenodd" clip-rule="evenodd" d="M97.247 152.941C98.9284 159.129 107.598 163.781 113.65 164.235C123.065 164.953 126.287 155.618 120.319 149.24C112.155 140.519 102.675 148.136 95.3374 153.45" fill="#688EBC"/>
<path fill-rule="evenodd" clip-rule="evenodd" d="M139.713 136.241C139.57 145.787 139.044 157.393 145.13 165.339C150.513 172.349 164.98 172.687 164.315 161.134C163.665 149.892 152.651 145.814 145.217 140.181C143.188 138.658 141.31 136.885 139.337 135.274" fill="#688EBC"/>
<path fill-rule="evenodd" clip-rule="evenodd" d="M126.698 114.274C123.02 120.089 119.44 127.654 119.338 134.614C119.259 139.151 123.631 148.79 129.708 145.661C138.38 141.198 129.074 121.768 126.868 114.984" fill="#688EBC"/>
<path fill-rule="evenodd" clip-rule="evenodd" d="M127.544 115.283C132.412 122.352 139.191 129.09 147.614 131.611C159.047 135.016 162.91 124.591 155.646 116.621C150.342 110.778 144.752 110.567 137.796 112.044C134.41 112.773 130.802 112.198 127.337 112.51" fill="#688EBC"/>
<path fill-rule="evenodd" clip-rule="evenodd" d="M111.939 89.6824C107.272 97.8963 101.902 106.69 100.496 116.236C99.6145 122.191 102.32 133.886 110.631 129.187C117.732 125.16 116.782 114.118 115.261 107.393C113.901 101.339 113.068 95.4382 112.429 89.274" fill="#688EBC"/>
<path fill-rule="evenodd" clip-rule="evenodd" d="M115.468 89.9809C118.648 96.9126 128.495 102.717 135.577 104.033C146.594 106.088 153.983 94.5706 145.955 85.9079C136.845 76.0836 124.75 84.2372 115.337 88.8118" fill="#688EBC"/>
<path fill-rule="evenodd" clip-rule="evenodd" d="M102.67 66.6409C98.5324 71.5182 92.7384 77.1371 93.3875 84.1587C93.7047 87.4727 97.1706 94.1732 101.215 91.7613C104.968 89.51 104.819 83.3178 104.565 79.7286C104.229 75.0615 104.409 70.555 106.337 66.274" fill="#688EBC"/>
<path fill-rule="evenodd" clip-rule="evenodd" d="M105.426 67.4504C108.493 72.2139 114.437 75.4965 119.692 76.842C125.888 78.4427 136.658 75.6937 132.345 66.9284C126.83 55.6808 110.885 64.419 102.337 65.9888" fill="#688EBC"/>
<path fill-rule="evenodd" clip-rule="evenodd" d="M28.0596 149.703C28.8698 159.059 19.7381 177.297 9.62655 179.11C-0.431014 180.886 -1.55752 167.768 2.61673 161.944C8.55405 153.649 19.1903 152.171 28.3374 149.274" fill="#688EBC"/>
<path fill-rule="evenodd" clip-rule="evenodd" d="M39.7436 136.657C33.4726 140.477 18.9513 146.451 12.3405 141.226C8.14242 137.904 8.39639 132.668 12.7849 129.968C18.1296 126.687 24.4304 128.747 29.6331 131.294C33.1178 133.014 36.6884 133.715 40.3374 135.122" fill="#688EBC"/>
<path fill-rule="evenodd" clip-rule="evenodd" d="M43.926 133.243C40.4249 139.129 38.8463 146.259 39.4711 153.119C39.9665 158.575 44.7579 168.481 51.2129 162.323C59.7975 154.136 48.3514 139.387 44.7838 131.274" fill="#688EBC"/>
<path fill-rule="evenodd" clip-rule="evenodd" d="M63.5672 111.274C59.6167 118.636 58.8571 127.686 59.5823 135.902C59.9755 140.412 62.8 151.789 69.7659 147.207C75.8043 143.23 72.8844 131.986 70.4415 126.833C68.3995 122.54 65.8192 119.413 64.8955 114.633" fill="#688EBC"/>
<path fill-rule="evenodd" clip-rule="evenodd" d="M60.6171 112.2C53.17 118.681 37.7887 125.058 28.5876 118.551C24.6748 115.766 21.0768 109.452 25.0983 105.586C35.881 95.1878 50.7489 106.653 62.3374 108.286" fill="#688EBC"/>
<path fill-rule="evenodd" clip-rule="evenodd" d="M74.7025 94.4503C66.2477 99.4523 55.1096 102.644 48.1195 93.2507C45.2735 89.4174 45.6595 82.8428 50.5643 80.7859C55.912 78.5367 62.1111 84.2269 65.7292 87.6181C69.1088 90.7746 71.618 91.386 76.3374 91.5436" fill="#688EBC"/>
<path fill-rule="evenodd" clip-rule="evenodd" d="M62.4356 235.925C79.0121 199.851 77.8973 157.788 80.5086 118.985C83.1276 79.9503 85.9107 38.357 98.2076 0.969147C98.5893 -0.215668 100.468 0.227219 100.33 1.44611C95.7719 42.8199 88.4533 83.6221 85.6587 125.242C83.0856 163.55 80.6461 201.271 64.3941 236.652C63.852 237.86 61.8782 237.14 62.4356 235.925Z" fill="#2C5292"/>
<path fill-rule="evenodd" clip-rule="evenodd" d="M97.3084 17.4634C97.2054 67.7667 128.877 108.206 149.255 151.895C149.694 152.839 148.266 153.833 147.66 152.9C121.133 112.45 89.1328 67.9563 95.0527 17.2662C95.2244 15.8061 97.316 16.0298 97.3084 17.4634Z" fill="#2C5292"/>
<path fill-rule="evenodd" clip-rule="evenodd" d="M89.3371 61.3047C88.3596 103.418 43.2117 134.96 16.643 162.058C15.9938 162.724 14.956 161.704 15.4806 160.97C39.9623 127.264 77.0151 103.445 87.4992 60.89C87.7747 59.7982 89.3635 60.2966 89.3371 61.3047Z" fill="#2C5292"/>
<path fill-rule="evenodd" clip-rule="evenodd" d="M84.6667 107.729C88.7429 137.878 102.551 160.924 115.244 187.833C115.719 188.866 114.27 189.816 113.537 188.912C95.4342 166.648 81.5723 136.746 83.5202 107.79C83.5547 107.14 84.5824 107.087 84.6667 107.729Z" fill="#2C5292"/>
<path fill-rule="evenodd" clip-rule="evenodd" d="M81.3257 149.94C81.8139 169.761 66.9654 186.884 53.0933 199.166C52.7132 199.509 52.0945 198.962 52.4374 198.559C64.1813 184.891 78.4111 168.555 80.0846 149.831C80.1628 148.998 81.2996 149.153 81.3257 149.94Z" fill="#2C5292"/>
<path fill-rule="evenodd" clip-rule="evenodd" d="M44.6909 142.062C42.1498 139.82 39.7136 134.261 42.7448 131.547C43.2418 131.104 43.9174 131.235 44.3514 131.692C45.447 132.855 45.517 133.901 45.6815 135.518C45.8705 137.466 46.4375 139.304 46.322 141.284C46.28 142.062 45.2965 142.588 44.6909 142.062Z" fill="#2C5292"/>
<path fill-rule="evenodd" clip-rule="evenodd" d="M31.8736 134.976C35.3701 133.284 38.8552 133.127 42.5893 133.357C43.2532 133.394 43.6379 134.458 43.042 134.885C39.6209 137.428 35.5888 139.995 31.7303 136.75C31.1758 136.294 31.1947 135.308 31.8736 134.976Z" fill="#2C5292"/>
<path fill-rule="evenodd" clip-rule="evenodd" d="M62.5676 125.813C59.5281 122.624 57.5862 115.709 61.6297 112.555C62.1278 112.165 62.9996 112.149 63.4082 112.709C65.7277 115.848 65.5098 121.338 65.0194 125.048C64.8598 126.272 63.4082 126.677 62.5676 125.813Z" fill="#2C5292"/>
<path fill-rule="evenodd" clip-rule="evenodd" d="M51.2329 111.305C55.1327 112.106 59.5992 111.17 63.4471 110.297C64.2952 110.102 64.5915 111.209 64.099 111.769C60.1991 116.242 55.3549 116.21 50.6773 112.94C50.007 112.476 50.3996 111.126 51.2329 111.305Z" fill="#2C5292"/>
<path fill-rule="evenodd" clip-rule="evenodd" d="M67.1595 91.2639C70.2154 91.5146 73.2934 90.66 76.294 90.2822C77.2229 90.1727 77.68 91.1827 77.0386 91.7759C73.9163 94.7245 70.6467 96.3454 66.4075 94.4738C64.675 93.7181 65.1321 91.0873 67.1595 91.2639Z" fill="#2C5292"/>
<path fill-rule="evenodd" clip-rule="evenodd" d="M103.686 69.2492C103.534 71.4233 103.082 73.1678 101.922 75.0752C101.69 75.4826 100.902 75.2086 100.994 74.7493C101.366 72.8863 101.454 70.9826 101.698 69.09C101.842 67.9011 103.774 68.0603 103.686 69.2492Z" fill="#2C5292"/>
<path fill-rule="evenodd" clip-rule="evenodd" d="M103.041 65.3404C108.028 67.7302 103.811 75.8224 100.58 78.0126C99.8066 78.5406 98.7684 78.2512 98.552 77.3008C98.067 75.1731 98.4558 73.4366 99.2013 71.3949C99.9309 69.4237 100.304 66.8032 102.115 65.5008C102.364 65.3131 102.745 65.1918 103.041 65.3404Z" fill="#2C5292"/>
<path fill-rule="evenodd" clip-rule="evenodd" d="M104.951 64.2746C109.157 64.3849 113.225 66.0396 117.494 66.0948C118.366 66.0948 118.597 67.1795 118.022 67.6612C113.675 71.2685 106.641 71.456 103.508 66.2235C102.929 65.2454 103.93 64.2452 104.951 64.2746Z" fill="#2C5292"/>
<path fill-rule="evenodd" clip-rule="evenodd" d="M115.043 92.1048C116.124 95.8724 114.028 99.8972 112.044 102.889C111.603 103.546 110.595 103.327 110.469 102.501C109.871 98.722 111.396 94.7855 113.366 91.6977C113.877 90.9104 114.815 91.3214 115.043 92.1048Z" fill="#2C5292"/>
<path fill-rule="evenodd" clip-rule="evenodd" d="M114.88 90.9736C118.797 88.9493 122.541 91.676 125.121 94.5881C125.576 95.1129 125.279 96.1429 124.551 96.202C120.715 96.494 116.501 96.0324 114.441 92.2521C114.179 91.7904 114.448 91.2064 114.88 90.9736Z" fill="#2C5292"/>
<path fill-rule="evenodd" clip-rule="evenodd" d="M130.178 118.059C130.651 122.293 130.02 126.64 128.963 130.731C128.775 131.437 127.65 131.452 127.387 130.791C125.736 126.542 125.992 121.602 128.444 117.666C128.865 116.982 130.095 117.243 130.178 118.059Z" fill="#2C5292"/>
<path fill-rule="evenodd" clip-rule="evenodd" d="M130.965 116.288C134.727 116.089 138.024 117.955 140.096 121.274C140.679 122.203 140.148 123.216 139.134 123.248C135.744 123.383 131.96 123.096 129.755 119.894C128.945 118.721 129.294 116.388 130.965 116.288Z" fill="#2C5292"/>
<path fill-rule="evenodd" clip-rule="evenodd" d="M96.4713 157.07C98.6608 161.499 96.3635 168.3 93.316 171.843C92.5848 172.687 91.3766 172.209 91.3573 171.127C91.2688 166.879 91.365 160.355 94.0201 156.854C94.6704 156.007 95.998 156.095 96.4713 157.07Z" fill="#2C5292"/>
<path fill-rule="evenodd" clip-rule="evenodd" d="M97.8756 155.671C101.697 152.473 108.115 155.35 111.011 158.444C111.738 159.218 111.151 160.401 110.214 160.623C106.059 161.585 98.8863 162.201 97.378 157.039C97.2303 156.556 97.5063 155.97 97.8756 155.671Z" fill="#2C5292"/>
<path fill-rule="evenodd" clip-rule="evenodd" d="M72.8879 212.22C70.4428 213.971 68.2293 215.385 65.0189 215.267C64.3125 215.246 64.1319 214.431 64.5872 214.039C66.6634 212.291 68.9868 211.337 71.581 210.361C72.8251 209.895 74.0104 211.408 72.8879 212.22Z" fill="#2C5292"/>
<path fill-rule="evenodd" clip-rule="evenodd" d="M72.2027 209.532C76.2747 208.09 78.0574 213.033 78.3323 216.063C78.403 216.719 77.7315 217.554 76.9462 217.182C74.9946 216.234 73.2118 215.198 72.1045 213.287C71.6176 212.437 70.6045 210.097 72.2027 209.532Z" fill="#2C5292"/>
<path fill-rule="evenodd" clip-rule="evenodd" d="M68.1957 223.605C68.731 226.924 67.6378 229.957 66.7782 233.118C65.8621 236.48 65.9074 239.679 63.1214 242.079C62.6163 242.511 61.9528 242.171 61.7756 241.584C59.8831 234.837 64.5578 228.933 67.4681 223.45C67.6453 223.126 68.1392 223.292 68.1957 223.605Z" fill="#2C5292"/>
</g>
</svg>
