<svg width="515" height="400" viewBox="0 0 515 400" fill="none" xmlns="http://www.w3.org/2000/svg">
<style type="text/css">
  @media only screen and (max-width: 767px) {
    #mr-heading-hearts .heart-outline, #mr-heading-hearts .filled-heart {
      display: none;
    }
  }
</style>
<g id="mr-heading-hearts">
<path d="M17.2 191H0L11.3 124.3H28.4L41.9 159.9L56.2 124.3H73.5L83.5 191H66.2L61.3 152.6L45.2 191H38.3L22.9 152.6L17.2 191Z" fill="#8095B8"/>
<path d="M138.804 124.3V139H118.204V150.1H137.704V164.8H118.204V176.3H138.804V191H100.904V124.3H138.804Z" fill="#8095B8"/>
<path d="M188.23 166.7V153.2H222.63C222.63 160.067 221.796 165.9 220.13 170.7C218.53 175.433 215.796 179.6 211.93 183.2C205.93 188.8 198.096 191.6 188.43 191.6C177.83 191.6 169.296 188.3 162.83 181.7C156.43 175.3 153.23 167.267 153.23 157.6C153.23 147.467 156.563 139.133 163.23 132.6C169.763 126.067 178.396 122.8 189.13 122.8C196.196 122.8 202.196 124.3 207.13 127.3C212.33 130.5 216.296 135.067 219.03 141L202.53 147.8C201.463 145.133 199.863 142.9 197.73 141.1C195.063 138.9 191.963 137.8 188.43 137.8C183.896 137.8 180.096 139.333 177.03 142.4C173.163 146.267 171.23 151.367 171.23 157.7C171.23 163.567 172.996 168.367 176.53 172.1C179.73 175.5 183.796 177.2 188.73 177.2C192.663 177.2 195.863 176.167 198.33 174.1C200.53 172.3 201.896 169.833 202.43 166.7H188.23Z" fill="#8095B8"/>
<path d="M281.062 191L276.962 179.8H252.763L248.262 191H229.962L255.562 124.3H274.462L299.562 191H281.062ZM257.562 166.6H272.362L264.862 145L257.562 166.6Z" fill="#8095B8"/>
<path d="M330.959 191H313.659V124.3H330.959L362.859 165.1V124.3H380.159V191H362.859L330.959 150.2V191Z" fill="#8095B8"/>
<path d="M166 236.3H193C200.067 236.3 205.5 238.267 209.3 242.2C213.1 246.067 215 251.067 215 257.2C215 263.067 213.233 267.7 209.7 271.1C207.233 273.433 204.167 274.967 200.5 275.7L221.4 303H199.9L183.3 277.4V303H166V236.3ZM183.3 249.7V266.2H186.6C190.333 266.2 193.133 265.3 195 263.5C196.467 262.033 197.2 260.167 197.2 257.9C197.2 255.567 196.433 253.7 194.9 252.3C193.167 250.567 190.4 249.7 186.6 249.7H183.3Z" fill="#8095B8"/>
<path d="M235.095 236.3H252.395V303H235.095V236.3Z" fill="#8095B8"/>
<path d="M290.143 303H272.843V236.3H290.143L322.043 277.1V236.3H339.343V303H322.043L290.143 262.2V303Z" fill="#8095B8"/>
<path d="M391.712 278.7V265.2H426.112C426.112 272.067 425.278 277.9 423.612 282.7C422.012 287.433 419.278 291.6 415.412 295.2C409.412 300.8 401.578 303.6 391.912 303.6C381.312 303.6 372.778 300.3 366.312 293.7C359.912 287.3 356.712 279.267 356.712 269.6C356.712 259.467 360.045 251.133 366.712 244.6C373.245 238.067 381.878 234.8 392.612 234.8C399.678 234.8 405.678 236.3 410.612 239.3C415.812 242.5 419.778 247.067 422.512 253L406.012 259.8C404.945 257.133 403.345 254.9 401.212 253.1C398.545 250.9 395.445 249.8 391.912 249.8C387.378 249.8 383.578 251.333 380.512 254.4C376.645 258.267 374.712 263.367 374.712 269.7C374.712 275.567 376.478 280.367 380.012 284.1C383.212 287.5 387.278 289.2 392.212 289.2C396.145 289.2 399.345 288.167 401.812 286.1C404.012 284.3 405.378 281.833 405.912 278.7H391.712Z" fill="#8095B8"/>
<path d="M514.153 269.7C514.153 279.567 510.653 287.867 503.653 294.6C496.72 301.2 487.953 304.5 477.353 304.5C466.753 304.5 457.986 301.2 451.053 294.6C444.053 287.867 440.553 279.567 440.553 269.7C440.553 265.1 441.42 260.6 443.153 256.2C444.953 251.8 447.586 247.967 451.053 244.7C457.986 238.1 466.753 234.8 477.353 234.8C487.953 234.8 496.72 238.1 503.653 244.7C507.12 247.967 509.72 251.8 511.453 256.2C513.253 260.6 514.153 265.1 514.153 269.7ZM477.353 251.6C471.886 251.6 467.386 253.367 463.853 256.9C460.32 260.367 458.553 264.733 458.553 270C458.553 274.867 460.32 279 463.853 282.4C467.52 285.933 472.02 287.7 477.353 287.7C482.82 287.7 487.286 285.967 490.753 282.5C494.353 278.9 496.153 274.633 496.153 269.7C496.153 264.633 494.353 260.367 490.753 256.9C487.02 253.367 482.553 251.6 477.353 251.6Z" fill="#8095B8"/>
<path d="M247 204L256.8 213.5C254.133 216.9 251.1 220.133 247.7 223.2L262.6 239H241L235.2 232.9C228.267 237.967 220.8 240.5 212.8 240.5C205.667 240.5 200.2 238.633 196.4 234.9C192.8 231.433 191 227.033 191 221.7C191 216.5 192.667 212.233 196 208.9C198.667 206.167 202.3 204 206.9 202.4C205.433 200.667 204.133 198.9 203 197.1C201.467 194.567 200.7 191.833 200.7 188.9C200.7 184.3 202.4 180.233 205.8 176.7C209.667 172.767 214.9 170.8 221.5 170.8C228.033 170.8 233.2 172.633 237 176.3C240.533 179.767 242.3 183.933 242.3 188.8C242.3 192.867 240.767 196.433 237.7 199.5C235.433 201.767 232.833 203.5 229.9 204.7L238.3 213.5C241.5 210.567 244.4 207.4 247 204ZM225.7 222.4L215.2 211.1C211 213.5 208.9 216.1 208.9 218.9C208.9 220.767 209.567 222.267 210.9 223.4C212.3 224.667 214.2 225.3 216.6 225.3C219.6 225.3 222.633 224.333 225.7 222.4ZM217.1 188.1C217.1 189.367 217.7 190.867 218.9 192.6C219.7 193.8 220.867 195.133 222.4 196.6C223.8 195.867 225.133 194.867 226.4 193.6C227.8 192 228.5 190.367 228.5 188.7C228.5 186.7 227.9 185.167 226.7 184.1C225.567 183.1 224.233 182.6 222.7 182.6C221.167 182.6 219.9 183.067 218.9 184C217.7 185.067 217.1 186.433 217.1 188.1Z" fill="#F6E9CB"/>
<g class="heart-outline">
<path fill-rule="evenodd" clip-rule="evenodd" d="M307.253 17.2473L328.241 24.7017L320.722 45.6665L299.735 38.2121L307.253 17.2473ZM310.294 23.6488L306.161 35.1733L317.698 39.2711L321.831 27.7465L310.294 23.6488Z" fill="#3C62A2" fill-opacity="0.5"/>
<path fill-rule="evenodd" clip-rule="evenodd" d="M329.391 6.75516L350.379 14.2096L342.86 35.1744L321.872 27.72L329.391 6.75516ZM332.432 13.1566L328.299 24.6812L339.836 28.779L343.969 17.2544L332.432 13.1566Z" fill="#EDD397" fill-opacity="0.5"/>
<path fill-rule="evenodd" clip-rule="evenodd" d="M323.552 23.0363L344.54 30.4907L337.021 51.4555L316.033 44.0011L323.552 23.0363ZM326.593 29.4378L322.46 40.9623L333.997 45.0601L338.13 33.5355L326.593 29.4378Z" fill="url(#paint0_linear)"/>
</g>
<g class="filled-heart">
<path d="M45.6716 245.929L20.1362 239.075L13.3987 264.642L38.9341 271.496L45.6716 245.929Z" fill="#3C62A2" fill-opacity="0.5"/>
<path d="M60.7097 237.21L35.1743 230.356L28.4368 255.923L53.9722 262.777L60.7097 237.21Z" fill="#EDD397" fill-opacity="0.5"/>
<path d="M57.5701 249.123L32.0347 242.269L25.2971 267.835L50.8325 274.689L57.5701 249.123Z" fill="url(#paint1_linear)"/>
</g>
<g class="filled-heart">
<path d="M484.286 99.6121L467.664 69.6175L437.745 86.377L454.368 116.372L484.286 99.6121Z" fill="#3C62A2" fill-opacity="0.5"/>
<path d="M505.973 105.779L489.35 75.7844L459.431 92.5439L476.054 122.538L505.973 105.779Z" fill="#EDD397" fill-opacity="0.5"/>
<path d="M492.032 113.588L475.409 83.5936L445.491 100.353L462.114 130.348L492.032 113.588Z" fill="url(#paint2_linear)"/>
</g>
<g class="heart-outline">
<path fill-rule="evenodd" clip-rule="evenodd" d="M77.2322 339.317L84.9773 353.651L70.6192 361.352L62.8741 347.018L77.2322 339.317ZM75.7465 344.284L67.8537 348.517L72.1112 356.397L80.004 352.163L75.7465 344.284Z" fill="#3C62A2" fill-opacity="0.5"/>
<path fill-rule="evenodd" clip-rule="evenodd" d="M94.3973 344.468L102.142 358.802L87.7842 366.504L80.0392 352.169L94.3973 344.468ZM92.9115 349.435L85.0187 353.668L89.2763 361.548L97.1691 357.315L92.9115 349.435Z" fill="#EDD397" fill-opacity="0.5"/>
<path fill-rule="evenodd" clip-rule="evenodd" d="M83.2469 350.449L90.9919 364.783L76.6338 372.484L68.8888 358.15L83.2469 350.449ZM81.7611 355.416L73.8684 359.649L78.1259 367.529L86.0187 363.295L81.7611 355.416Z" fill="url(#paint3_linear)"/>
</g>
<g class="filled-heart">
<path d="M276.387 364.304L252.193 340L228 364.304L252.193 388.608L276.387 364.304Z" fill="#3C62A2" fill-opacity="0.5"/>
<path d="M298.933 364.304L274.739 340L250.546 364.304L274.739 388.608L298.933 364.304Z" fill="#EDD397" fill-opacity="0.5"/>
<path d="M287.66 375.628L263.466 351.324L239.273 375.628L263.466 399.932L287.66 375.628Z" fill="url(#paint4_linear)"/>
</g>
</g>
<defs>
<linearGradient id="paint0_linear" x1="337.805" y1="16.2811" x2="322.896" y2="58.2563" gradientUnits="userSpaceOnUse">
<stop stop-color="#EDD397" stop-opacity="0.5"/>
<stop offset="1" stop-color="#3C62A2" stop-opacity="0.5"/>
</linearGradient>
<linearGradient id="paint1_linear" x1="57.5701" y1="249.123" x2="25.2971" y2="267.835" gradientUnits="userSpaceOnUse">
<stop stop-color="#EDD397" stop-opacity="0.5"/>
<stop offset="1" stop-color="#3C62A2" stop-opacity="0.5"/>
</linearGradient>
<linearGradient id="paint2_linear" x1="492.032" y1="113.588" x2="445.491" y2="100.353" gradientUnits="userSpaceOnUse">
<stop stop-color="#EDD397" stop-opacity="0.5"/>
<stop offset="1" stop-color="#3C62A2" stop-opacity="0.5"/>
</linearGradient>
<linearGradient id="paint3_linear" x1="94.2984" y1="353.765" x2="65.6297" y2="369.255" gradientUnits="userSpaceOnUse">
<stop stop-color="#EDD397" stop-opacity="0.5"/>
<stop offset="1" stop-color="#3C62A2" stop-opacity="0.5"/>
</linearGradient>
<linearGradient id="paint4_linear" x1="287.66" y1="375.628" x2="239.273" y2="375.628" gradientUnits="userSpaceOnUse">
<stop stop-color="#EDD397" stop-opacity="0.5"/>
<stop offset="1" stop-color="#3C62A2" stop-opacity="0.5"/>
</linearGradient>
</defs>
</svg>
