<svg width="69" height="50" viewBox="0 0 69 50" fill="none" xmlns="http://www.w3.org/2000/svg">
<path d="M52.2565 40.1975C55.4454 40.1986 58.521 39.0152 60.8867 36.8769C63.2524 34.7387 64.7396 31.7979 65.0598 28.6251C65.38 25.4524 64.5104 22.2738 62.6196 19.7059C60.7288 17.1381 57.9516 15.364 54.8268 14.728C53.8021 11.4166 51.8592 8.46392 49.2236 6.21261C46.588 3.9613 43.3678 2.50377 39.9371 2.00923C36.5063 1.5147 33.0056 2.00345 29.8415 3.41874C26.6773 4.83404 23.9796 7.11782 22.0614 10.0049C19.934 9.31446 17.6822 9.09345 15.4612 9.35712C13.2402 9.62079 11.1028 10.3629 9.19621 11.5322C7.28963 12.7016 5.65925 14.2704 4.41742 16.1306C3.17559 17.9907 2.35183 20.098 2.00291 22.3073C1.65399 24.5165 1.7882 26.7751 2.3963 28.9274C3.00441 31.0798 4.07194 33.0747 5.52533 34.7747C6.97872 36.4747 8.78342 37.8394 10.8151 38.7748C12.8467 39.7101 15.057 40.1938 17.2936 40.1926" fill="white"/>
<path d="M52.2563 42.0618C55.8528 42.0239 59.314 40.6855 62.0004 38.2939C64.6867 35.9023 66.4166 32.6191 66.8703 29.0511C67.7901 21.5937 62.6444 14.5166 55.3213 12.9282L56.6238 14.2307C54.3692 7.17352 48.3784 1.60034 41.0105 0.310206C37.1032 -0.377628 33.0803 0.084042 29.4304 1.63912C25.7806 3.19421 22.6609 5.77577 20.4503 9.0702L22.5558 8.21259C14.7504 5.80384 6.06248 9.14974 2.10756 16.3586C-1.66092 23.2318 -0.283784 32.1111 5.50318 37.4358C8.72376 40.3846 12.9243 42.0331 17.2909 42.0618C19.6922 42.0892 19.6922 38.3605 17.2909 38.3331C11.2006 38.266 5.76667 34.2067 4.15587 28.2905C3.38836 25.3858 3.59499 22.3096 4.74405 19.5337C5.89312 16.7578 7.92116 14.4356 10.5171 12.9232C13.8928 10.9768 17.8601 10.6636 21.5615 11.8071C22.3918 12.0556 23.2096 11.6231 23.667 10.9495C27.3062 5.59503 33.9632 2.7115 40.3592 3.96435C43.284 4.53713 46.0017 5.88371 48.2293 7.8638C50.4568 9.84388 52.1127 12.385 53.0244 15.2226C53.111 15.5335 53.2764 15.8167 53.5046 16.0449C53.7328 16.2731 54.016 16.4385 54.3269 16.5251C59.9275 17.7407 63.8973 22.9261 63.1789 28.7056C62.4978 34.1967 57.7101 38.2536 52.2413 38.3257C49.845 38.358 49.8376 42.0867 52.2413 42.0544L52.2563 42.0618Z" fill="#231815"/>
<path d="M58.0228 31.4768L58.0356 31.5152C58.5577 33.1305 60.7655 32.8343 61.1469 31.5663C61.2302 31.27 61.2198 30.9551 61.1171 30.6649C61.019 30.358 60.9104 30.0554 60.791 29.7571C59.0116 25.2819 55.0564 21.7848 50.2296 20.9601C47.7199 20.5243 45.1392 20.7688 42.756 21.6683C40.3728 22.5677 38.2742 24.0893 36.6783 26.0746C36.4169 26.3957 36.1661 26.7317 35.926 27.0826L37.731 26.3474C37.3815 26.2409 37.0299 26.1514 36.6783 26.0746C34.7832 25.6691 32.8191 25.7177 30.9464 26.2166C29.0738 26.7155 27.3458 27.6505 25.9037 28.9452C24.6181 30.1272 23.6029 31.5729 22.9277 33.1835C22.2524 34.7941 21.9329 36.5315 21.9911 38.277C22.0044 38.7821 22.0485 39.286 22.1232 39.7858C22.2087 40.3575 22.3384 40.9218 22.5111 41.4736C22.9885 43.0093 23.7661 44.4349 24.7988 45.6677C25.8316 46.9005 27.0988 47.916 28.527 48.6552C30.6091 49.7058 32.7891 49.9956 35.0864 49.9956H56.0686C57.8566 49.9956 59.6211 50.0169 61.3323 49.3797C65.4708 47.8411 68.3115 43.7943 68.1644 39.3447C68.0842 37.106 67.2813 34.9536 65.8757 33.2094C65.1675 32.3276 64.3221 31.5656 63.3717 30.9526C62.5714 30.4347 61.7028 30.0309 60.791 29.7528C60.531 29.6718 60.2689 29.6036 60.0004 29.5397C59.673 29.4613 59.3292 29.4882 59.018 29.6164C58.6761 29.7783 58.395 30.0455 58.2159 30.3787C58.0368 30.712 57.9691 31.0938 58.0228 31.4683" fill="#231815"/>
<path d="M58.0228 31.4769C58.0624 31.7644 58.1934 32.0316 58.3963 32.2392C58.5993 32.4467 58.8635 32.5836 59.1501 32.6298C62.3466 33.3373 64.8549 35.9947 64.9678 39.3489C65.0723 42.4432 63.1735 45.367 60.2199 46.3963C58.9285 46.8459 57.6349 46.8033 56.2966 46.8033H37.0149C36.0368 46.8033 35.0565 46.814 34.0762 46.8033C32.4424 46.8056 30.8394 46.359 29.4421 45.5123C28.0448 44.6656 26.9069 43.4513 26.1527 42.002C25.3984 40.5527 25.0568 38.924 25.1651 37.2938C25.2734 35.6636 25.8274 34.0944 26.7667 32.7576C29.0107 29.4907 33.1599 28.2824 36.8807 29.4247C37.5946 29.6378 38.2914 29.267 38.6857 28.6895C41.0874 25.1775 45.4667 23.2723 49.6755 24.0971C51.5976 24.4732 53.3845 25.3555 54.8519 26.6528C56.3192 27.95 57.4138 29.6153 58.0228 31.4769V31.4769Z" fill="white" stroke="#231815" stroke-miterlimit="10"/>
</svg>
