<svg width="322" height="128" viewBox="0 0 322 128" fill="none" xmlns="http://www.w3.org/2000/svg">
<path fill-rule="evenodd" clip-rule="evenodd" d="M193.022 127.224H129.37C123.532 127.224 119.49 121.392 121.543 115.926L130.314 92.5763C131.538 89.315 134.657 87.1553 138.14 87.1553H184.251C187.736 87.1553 190.854 89.315 192.079 92.5763L200.849 115.926C202.902 121.392 198.861 127.224 193.022 127.224Z" fill="#A0B5D8"/>
<path fill-rule="evenodd" clip-rule="evenodd" d="M121 119.335H201.39V94.7998H121V119.335Z" fill="#A0B5D8"/>
<path fill-rule="evenodd" clip-rule="evenodd" d="M193.022 101.793H129.37C123.532 101.793 119.49 95.9589 121.543 90.4933L130.314 67.1446C131.538 63.8834 134.657 61.7236 138.14 61.7236H184.251C187.736 61.7236 190.854 63.8834 192.079 67.1446L200.849 90.4933C202.902 95.9589 198.861 101.793 193.022 101.793Z" fill="#FFFFFE"/>
<path fill-rule="evenodd" clip-rule="evenodd" d="M190.251 100.048H132.138C126.807 100.048 123.118 94.7235 124.992 89.7333L133 68.4161C134.117 65.4393 136.965 63.4678 140.147 63.4678H182.243C185.424 63.4678 188.272 65.4393 189.39 68.4161L197.397 89.7333C199.271 94.7235 195.582 100.048 190.251 100.048Z" fill="#414D5B"/>
<path fill-rule="evenodd" clip-rule="evenodd" d="M201.39 28.3431C201.39 43.9953 183.395 56.6847 161.195 56.6847C138.996 56.6847 121.002 43.9953 121.002 28.3431C121.002 12.6894 138.996 0 161.195 0C183.395 0 201.39 12.6894 201.39 28.3431Z" fill="#A0B5D8"/>
<path fill-rule="evenodd" clip-rule="evenodd" d="M129.37 21.6543H193.022C198.861 21.6543 202.902 27.4866 200.849 32.9522L192.079 56.3023C190.854 59.5635 187.736 61.7233 184.251 61.7233H138.14C134.657 61.7233 131.538 59.5635 130.314 56.3023L121.543 32.9522C119.49 27.4866 123.532 21.6543 129.37 21.6543Z" fill="#FFFFFE"/>
<path fill-rule="evenodd" clip-rule="evenodd" d="M190.251 23.7002H132.138C126.807 23.7002 123.118 29.0236 124.992 34.0151L133 55.3324C134.117 58.3092 136.965 60.2807 140.147 60.2807H182.243C185.424 60.2807 188.272 58.3092 189.39 55.3324L197.397 34.0151C199.271 29.0236 195.582 23.7002 190.251 23.7002Z" fill="#405588"/>
<path fill-rule="evenodd" clip-rule="evenodd" d="M156.174 37.1094H166.219L170.535 40.9924H170.54L170.538 40.9953L170.54 40.9966H170.537L166.219 48.7669H156.174L151.856 40.9966H151.854L151.855 40.9952L151.854 40.9924H151.858L156.174 37.1094Z" fill="#F2DBD2"/>
<path fill-rule="evenodd" clip-rule="evenodd" d="M166.219 37.1094H156.174L151.854 40.9966H170.54L166.219 37.1094Z" fill="#F7FAF0"/>
<path fill-rule="evenodd" clip-rule="evenodd" d="M162.281 37.1094L164.103 40.9925L161.196 48.6778L158.275 40.9925L160.113 37.1094H161.196L162.281 37.1094Z" fill="#FFFFFE"/>
<path fill-rule="evenodd" clip-rule="evenodd" d="M161.195 89.8928C151.472 89.8928 143.588 82.0123 143.588 72.29C143.588 62.569 151.472 54.6871 161.195 54.6871C170.919 54.6871 178.802 62.569 178.802 72.29C178.802 82.0123 170.919 89.8928 161.195 89.8928ZM161.195 49.998C148.881 49.998 138.898 59.9783 138.898 72.2899C138.898 84.6014 148.881 94.5831 161.195 94.5831C173.509 94.5831 183.493 84.6014 183.493 72.2899C183.493 59.9783 173.509 49.998 161.195 49.998Z" fill="#EDD397"/>
<path fill-rule="evenodd" clip-rule="evenodd" d="M167.065 51.3185H155.323C154.718 51.3185 154.223 50.8221 154.223 50.217V49.7792C154.223 49.1741 154.718 48.6777 155.323 48.6777H167.065C167.672 48.6777 168.166 49.1741 168.166 49.7792V50.217C168.166 50.8221 167.672 51.3185 167.065 51.3185Z" fill="#E8D7C3"/>
<path fill-rule="evenodd" clip-rule="evenodd" d="M140.7 74.0913C140.7 61.7798 150.683 51.7995 162.997 51.7995C168.695 51.7995 173.893 53.9397 177.834 57.4561C173.751 52.8814 167.813 49.998 161.195 49.998C148.881 49.998 138.898 59.9783 138.898 72.2899C138.898 78.9044 141.782 84.8427 146.358 88.9251C142.841 84.9849 140.7 79.7884 140.7 74.0913Z" fill="#FFFFFE"/>
<path fill-rule="evenodd" clip-rule="evenodd" d="M181.614 70.4877C181.614 82.7992 171.632 92.7809 159.318 92.7809C153.619 92.7809 148.422 90.6393 144.48 87.1229C148.564 91.699 154.503 94.5823 161.119 94.5823C173.434 94.5823 183.416 84.6007 183.416 72.2891C183.416 65.676 180.532 59.7363 175.955 55.6553C179.474 59.5955 181.614 64.7906 181.614 70.4877Z" fill="#CDB377"/>
<path fill-rule="evenodd" clip-rule="evenodd" d="M197.397 89.7337L196.775 88.0759C189.011 83.3729 175.979 80.2832 161.195 80.2832C146.412 80.2832 133.379 83.3729 125.616 88.0759L124.992 89.7337C123.118 94.7238 126.807 100.049 132.138 100.049H190.251C195.582 100.049 199.271 94.7238 197.397 89.7337Z" fill="#515D6B"/>
<rect opacity="0.5" y="72" width="6" height="96" transform="rotate(-90 0 72)" fill="url(#paint0_linear)"/>
<rect opacity="0.5" x="226" y="69" width="6" height="96" transform="rotate(-90 226 69)" fill="url(#paint1_linear)"/>
<defs>
<linearGradient id="paint0_linear" x1="3" y1="72" x2="3" y2="168" gradientUnits="userSpaceOnUse">
<stop stop-color="white"/>
<stop offset="0.255208" stop-color="#EDD397"/>
<stop offset="0.494792" stop-color="#3C62A2"/>
<stop offset="0.739583" stop-color="#EDD397"/>
<stop offset="1" stop-color="white"/>
</linearGradient>
<linearGradient id="paint1_linear" x1="229" y1="69" x2="229" y2="165" gradientUnits="userSpaceOnUse">
<stop stop-color="white"/>
<stop offset="0.255208" stop-color="#EDD397"/>
<stop offset="0.494792" stop-color="#3C62A2"/>
<stop offset="0.739583" stop-color="#EDD397"/>
<stop offset="1" stop-color="white"/>
</linearGradient>
</defs>
</svg>
