<svg width="61" height="50" viewBox="0 0 61 50" fill="none" xmlns="http://www.w3.org/2000/svg">
<path d="M47.1503 36.2698C50.0277 36.2708 52.8028 35.203 54.9374 33.2736C57.072 31.3442 58.4139 28.6908 58.7028 25.828C58.9917 22.9653 58.207 20.0972 56.5009 17.7803C54.7949 15.4633 52.289 13.8626 49.4695 13.2886C48.5449 10.3009 46.7918 7.63663 44.4137 5.60527C42.0356 3.57392 39.1301 2.25879 36.0345 1.81257C32.939 1.36635 29.7803 1.80736 26.9253 3.08438C24.0703 4.36139 21.6361 6.42204 19.9054 9.02706C17.9859 8.40406 15.9541 8.20465 13.9501 8.44256C11.9461 8.68046 10.0175 9.35004 8.29716 10.4051C6.57686 11.4602 5.10578 12.8758 3.98527 14.5542C2.86477 16.2326 2.12149 18.1341 1.80666 20.1274C1.49183 22.1208 1.61294 24.1587 2.16163 26.1008C2.71031 28.0429 3.67354 29.8429 4.98494 31.3768C6.29633 32.9107 7.9247 34.1421 9.75785 34.986C11.591 35.8299 13.5853 36.2664 15.6034 36.2653" fill="white"/>
<path d="M47.1507 37.9521C50.3958 37.9178 53.5189 36.7102 55.9428 34.5522C58.3666 32.3943 59.9275 29.4319 60.3369 26.2125C61.1668 19.4837 56.5239 13.0981 49.9162 11.6648L51.0915 12.8401C49.0572 6.47241 43.6517 1.44375 37.0036 0.279662C33.4779 -0.34074 29.8479 0.076163 26.5546 1.47972C23.2613 2.88327 20.4466 5.21306 18.4523 8.18602L20.3521 7.41221C13.3092 5.2388 5.47016 8.2578 1.90165 14.7623C-1.49865 20.964 -0.256058 28.9758 4.9655 33.7802C7.87143 36.441 11.6615 37.9284 15.6015 37.9543C17.7682 37.979 17.7682 34.6146 15.6015 34.5899C10.1063 34.5293 5.20325 30.8666 3.74983 25.5284C3.05859 22.908 3.24591 20.1331 4.28307 17.6294C5.32023 15.1256 7.14997 13.0311 9.49175 11.6671C12.5377 9.91084 16.1174 9.62823 19.4571 10.66C20.2063 10.8843 20.9442 10.494 21.3569 9.88617C24.6406 5.05488 30.6471 2.45307 36.4182 3.58351C39.0573 4.10034 41.5095 5.31535 43.5194 7.10197C45.5293 8.8886 47.0234 11.1815 47.846 13.7418C47.9241 14.0223 48.0734 14.2779 48.2793 14.4838C48.4852 14.6897 48.7408 14.8389 49.0213 14.9171C54.0746 16.0139 57.6566 20.6926 57.0084 25.9075C56.3938 30.8621 52.0739 34.5226 47.1395 34.5876C44.9773 34.6168 44.9705 37.9812 47.1395 37.9521H47.1507Z" fill="#231815"/>
<path d="M42.714 40.8051L41.6733 40.204L42.3775 39.7935C44.2482 38.7057 42.557 35.7966 40.6796 36.8777L38.7844 37.979C38.6363 38.0642 38.4703 38.1517 38.2954 38.2437L37.6225 37.8556V34.6236L38.2954 34.2333C38.4659 34.323 38.6341 34.4105 38.7844 34.498L40.6796 35.5992C42.5547 36.6893 44.2504 33.7825 42.3775 32.6834L41.6733 32.273L42.3461 31.8872L42.7656 31.6449C44.2796 30.7702 43.4654 28.7045 42.1039 28.5048C41.9877 28.4909 41.8702 28.4909 41.754 28.5048C41.5112 28.5298 41.2764 28.6063 41.0654 28.7291L39.9955 29.3482C39.9955 29.079 39.9955 28.8099 39.9955 28.5407C39.9955 28.4891 39.9955 28.4375 39.9955 28.3882C39.8542 26.6163 37.3511 26.4436 36.7635 27.8768C36.677 28.0904 36.6342 28.3192 36.6379 28.5497V30.741C36.6379 30.907 36.6379 31.0932 36.6222 31.2838V31.3063L35.7609 31.8042L34.3725 31.0035C34.1482 30.8666 33.8701 30.6872 33.5852 30.501C33.4417 30.4068 33.2914 30.3104 33.1366 30.2184V29.2988C33.3071 29.1912 33.4731 29.0858 33.6256 28.9983L35.5254 27.9082C35.642 27.8418 35.7511 27.7628 35.8506 27.6727C37.1762 26.4638 35.5859 23.9943 33.832 25.0036L33.1389 25.4006V24.2275C33.1389 22.0631 29.7745 22.0586 29.7745 24.2275V25.4208L29.0792 25.0148C27.4598 24.0862 25.9772 26.1116 26.7981 27.3811C26.946 27.6057 27.1461 27.7912 27.3813 27.9217L29.281 29.0117C29.4335 29.0992 29.5995 29.2046 29.77 29.3123V30.2655C29.373 30.5123 28.9962 30.7769 28.6777 30.9608L27.1727 31.8311L26.289 31.3197C26.289 31.1223 26.2733 30.9317 26.2733 30.7545V28.5631C26.2733 26.3987 22.9088 26.3942 22.9088 28.5631C22.9088 28.8323 22.9088 29.1015 22.9088 29.3706L21.839 28.7516C19.9594 27.6682 18.2637 30.5728 20.1411 31.6674L21.2266 32.2954L20.5224 32.7059C18.6517 33.7937 20.3429 36.7028 22.2203 35.6217L24.1155 34.5204C24.2636 34.4352 24.4296 34.3477 24.6045 34.2557L25.3222 34.6707V37.8624L24.6045 38.2773C24.434 38.1876 24.2658 38.1001 24.1155 38.0126L22.2203 36.9114C20.3452 35.8213 18.6495 38.7281 20.5224 39.8272L21.2266 40.2376L20.1859 40.8387C18.3108 41.9221 20.0042 44.8289 21.8838 43.7546L22.9111 43.1624C22.9111 43.4316 22.9111 43.7007 22.9111 43.9699C22.9111 46.1343 26.2755 46.1388 26.2755 43.9699V41.7785C26.2755 41.6058 26.2755 41.4129 26.2912 41.2133L26.8205 40.9083L28.5857 41.9266C28.9289 42.124 29.3393 42.4178 29.7745 42.6847V43.2207C29.604 43.3284 29.438 43.4338 29.2855 43.5213L27.3857 44.6114C25.5084 45.688 27.2018 48.5971 29.0837 47.5272L29.7767 47.1302V48.375C29.7767 50.5395 33.1411 50.5439 33.1411 48.375V47.1302L33.8342 47.5272C35.716 48.606 37.4229 45.7014 35.5321 44.6114L33.6323 43.5213C33.4798 43.4338 33.3138 43.3284 33.1434 43.2207V42.7026C33.5583 42.4469 33.9508 42.1688 34.2805 41.9782L36.1175 40.9173L36.6267 41.2111C36.6267 41.4085 36.6424 41.5991 36.6424 41.7763V43.9677C36.6424 46.1321 40.0068 46.1366 40.0068 43.9677C40.0068 43.6985 40.0068 43.4293 40.0068 43.1602L41.034 43.7523C42.8934 44.7953 44.5891 41.8884 42.714 40.8051ZM31.4724 39.6657L31.45 39.6522L30.1804 38.9188L29.7677 38.681L28.6867 38.0575V34.8411L28.8526 34.7447L29.7677 34.2154L30.5348 33.7668L31.45 33.2374L31.4724 33.224L32.3875 33.7533L33.1322 34.184L34.0697 34.7245L34.2581 34.8322V38.0485L33.1366 38.699L32.7464 38.9233L31.4724 39.6657Z" fill="#2EA7E0"/>
</svg>
